<svg id="Layer_1" data-name="Layer 1" xmlns="http://www.w3.org/2000/svg" viewBox="0 0 512 384"><defs><style>.cls-1{fill:#f93b2a;}.cls-2{fill:#e8ebf0;}.cls-3{fill:#d8dbe1;}.cls-4{fill:#d63123;}.cls-5{fill:#474e5d;}</style></defs><title>advertising</title><circle class="cls-1" cx="48" cy="171" r="48"/><circle class="cls-2" cx="360" cy="171" r="24"/><path class="cls-3" d="M497,318a24,24,0,0,1-23.81-21,24.65,24.65,0,0,0-.19,3,24,24,0,0,0,48,0,24.65,24.65,0,0,0-.19-3A24,24,0,0,1,497,318Z" transform="translate(-137 -129)"/><path class="cls-2" d="M278,513H257.1a12,12,0,0,1-11.55-8.76L206,363h84V501A12,12,0,0,1,278,513Z" transform="translate(-137 -129)"/><path class="cls-3" d="M290,492H269a9,9,0,0,1,0-18h21Z" transform="translate(-137 -129)"/><path class="cls-3" d="M290,462H269a9,9,0,0,1,0-18h21Z" transform="translate(-137 -129)"/><path class="cls-3" d="M290,432H269a9,9,0,0,1,0-18h21Z" transform="translate(-137 -129)"/><path class="cls-3" d="M290,402H269a9,9,0,0,1,0-18h21Z" transform="translate(-137 -129)"/><path class="cls-1" d="M311,363H201a16,16,0,0,1-16-16V253a16,16,0,0,1,16-16H311Z" transform="translate(-137 -129)"/><path class="cls-4" d="M185,327v24a12,12,0,0,0,12,12H311V339H197A12,12,0,0,1,185,327Z" transform="translate(-137 -129)"/><path class="cls-2" d="M473,141c0,53-109,96-162,96V363c53,0,162,43,162,96Z" transform="translate(-137 -129)"/><path class="cls-3" d="M311,339v24c53,0,162,43,162,96V435C473,382,364,339,311,339Z" transform="translate(-137 -129)"/><path class="cls-5" d="M473,459a12,12,0,0,0,24,0V141a12,12,0,0,0-24,0Z" transform="translate(-137 -129)"/><path class="cls-4" d="M167,330H150.5a6,6,0,0,1,0-12H167a6,6,0,0,1,0,12Z" transform="translate(-137 -129)"/><path class="cls-4" d="M167,306H143a6,6,0,0,1,0-12h24a6,6,0,0,1,0,12Z" transform="translate(-137 -129)"/><path class="cls-4" d="M167,282H150.5a6,6,0,0,1,0-12H167a6,6,0,0,1,0,12Z" transform="translate(-137 -129)"/><path class="cls-5" d="M290,402h10a8,8,0,0,0,8-8V363H290Z" transform="translate(-137 -129)"/><rect class="cls-5" x="472" y="167" width="40" height="8"/><rect class="cls-5" x="598.95" y="245.49" width="40" height="8" transform="translate(-185.36 126.87) rotate(-22.5)"/><rect class="cls-5" x="570.34" y="202.66" width="40" height="8" transform="translate(-110.23 348.96) rotate(-45)"/><rect class="cls-5" x="527.51" y="174.05" width="40" height="8" transform="translate(36.48 486.74) rotate(-67.5)"/><rect class="cls-5" x="543.51" y="401.95" width="8" height="40" transform="translate(-256.8 112.65) rotate(-22.5)"/><rect class="cls-5" x="586.34" y="373.34" width="8" height="40" transform="translate(-242.23 403.64) rotate(-45)"/><rect class="cls-5" x="614.95" y="330.51" width="8" height="40" transform="translate(-78.75 659.21) rotate(-67.5)"/></svg>