<svg id="Layer_1" data-name="Layer 1" xmlns="http://www.w3.org/2000/svg" viewBox="0 0 512 512"><defs><style>.cls-1{fill:#e8ebf0;}.cls-2{fill:#474e5d;}.cls-3{fill:#f93b2a;}.cls-4{fill:#24b3c9;}.cls-5{fill:#abb2c1;}</style></defs><title>branding</title><circle class="cls-1" cx="256" cy="256" r="256"/><path class="cls-2" d="M508.58,388.39A156.06,156.06,0,0,1,370,481v58A214,214,0,0,0,562.18,410.59Z" transform="translate(-110 -69)"/><path class="cls-3" d="M522,325a155.6,155.6,0,0,1-10.36,56l53.62,22.21a214.86,214.86,0,0,0,0-156.42L511.64,269A155.6,155.6,0,0,1,522,325Z" transform="translate(-110 -69)"/><path class="cls-4" d="M362,481A156,156,0,0,1,252.9,217.56l-41-41A213.29,213.29,0,0,0,152,325c0,116.85,93.66,211.81,210,214Z" transform="translate(-110 -69)"/><path class="cls-5" d="M258.56,211.9a156,156,0,0,1,250,49.71l53.6-22.2a214,214,0,0,0-344.64-68.53Z" transform="translate(-110 -69)"/><path class="cls-3" d="M366,211A114,114,0,1,0,480,325,114,114,0,0,0,366,211Zm0,186a72,72,0,1,1,72-72A72,72,0,0,1,366,397Z" transform="translate(-110 -69)"/><circle class="cls-3" cx="256" cy="256" r="30"/><polygon class="cls-3" points="454.63 102.63 416 96 409.37 57.37 465.37 1.37 472 40 510.63 46.63 454.63 102.63"/><path class="cls-2" d="M592.34,87.34l-232,232a8,8,0,0,0,11.32,11.32l232-232Z" transform="translate(-110 -69)"/></svg>