<svg xmlns="http://www.w3.org/2000/svg" xmlns:xlink="http://www.w3.org/1999/xlink" viewBox="0 0 823.35 627.22"><defs><style>.cls-1{isolation:isolate;}.cls-2,.cls-3{fill:#7c9cb4;}.cls-3{opacity:0.81;}.cls-11,.cls-115,.cls-116,.cls-12,.cls-121,.cls-122,.cls-124,.cls-125,.cls-134,.cls-135,.cls-136,.cls-144,.cls-22,.cls-34,.cls-4,.cls-42,.cls-44,.cls-46,.cls-5,.cls-65,.cls-70,.cls-89,.cls-9,.cls-90{fill:none;}.cls-115,.cls-116,.cls-4{stroke:#7c9cb4;}.cls-11,.cls-115,.cls-116,.cls-12,.cls-122,.cls-124,.cls-125,.cls-134,.cls-135,.cls-136,.cls-144,.cls-22,.cls-34,.cls-4,.cls-42,.cls-44,.cls-46,.cls-65,.cls-89,.cls-90{stroke-linecap:round;}.cls-12,.cls-144,.cls-4,.cls-44,.cls-46,.cls-5,.cls-70,.cls-80,.cls-9{stroke-miterlimit:10;}.cls-12,.cls-4,.cls-5{stroke-width:5.2px;}.cls-12,.cls-42,.cls-5,.cls-9{stroke:#4b4051;}.cls-6{fill:#ebf8fc;}.cls-7{fill:#d6e4ea;}.cls-8{fill:#bccdd3;}.cls-42,.cls-9{stroke-width:5px;}.cls-10,.cls-104{fill:#574d5e;}.cls-11,.cls-65{stroke:#574d5e;}.cls-11,.cls-115,.cls-116,.cls-121,.cls-122,.cls-124,.cls-125,.cls-134,.cls-135,.cls-136,.cls-22,.cls-34,.cls-42,.cls-65,.cls-89,.cls-90{stroke-linejoin:round;}.cls-11{stroke-width:2.5px;}.cls-13{fill:#f2dbbb;}.cls-14{fill:#aa8b79;}.cls-15{fill:#d4bd96;}.cls-16,.cls-25,.cls-99{fill:#b59885;}.cls-17{fill:#a7b3b7;}.cls-18,.cls-39{fill:#bfcbd1;}.cls-144,.cls-19,.cls-39{opacity:0.6;}.cls-20{fill:#433a47;}.cls-21{fill:#7d7087;}.cls-22{stroke:#79707f;stroke-width:2.08px;}.cls-23{fill:#826057;}.cls-24{fill:#b26941;}.cls-25{mix-blend-mode:darken;}.cls-112,.cls-140,.cls-149,.cls-26,.cls-63,.cls-64,.cls-79,.cls-83,.cls-91{fill:#fff;}.cls-27{fill:#f7524b;}.cls-28{fill:#af4343;}.cls-29{fill:#f79c57;}.cls-30{fill:#525b1b;}.cls-31{fill:#778e17;}.cls-32,.cls-33{fill:#a0a6ba;}.Graphic-Style-62{fill:url(#linear-gradient);}.cls-128,.cls-33{opacity:0.2;}.cls-34{stroke:#a0a6ba;stroke-width:2.82px;}.cls-35{fill:#483f4f;}.cls-36,.cls-92{fill:#312633;}.cls-37{fill:#ffb287;}.cls-38{fill:#60758c;}.cls-38,.cls-45,.cls-97{opacity:0.7;}.cls-40{fill:#4b4051;}.cls-41{fill:#6d6177;}.cls-43{opacity:0.9;}.cls-44{stroke:#f22c2c;stroke-width:6px;}.cls-46{stroke:#ff6a48;}.cls-46,.cls-89,.cls-90{stroke-width:2px;}.cls-47{fill:#9fa9bc;}.cls-48{fill:#d2f0f7;}.cls-49{fill:#bfc5d8;}.cls-50{fill:#6f778e;}.cls-51{fill:#2ebfff;}.cls-52{fill:#545766;}.cls-53{fill:#f16228;}.cls-54{fill:#f6b979;}.cls-55{fill:#b0bd46;}.cls-109,.cls-56{fill:#fcae47;}.cls-57{fill:#7e99b8;}.cls-58{fill:#ea3d26;}.cls-59{fill:#c0e0de;}.cls-60{fill:#ccd835;}.cls-61{fill:#db4126;}.cls-62,.cls-82{fill:#3f444c;}.cls-62,.cls-83{opacity:0.5;}.cls-63{opacity:0.78;}.cls-64{opacity:0.12;}.cls-112,.cls-140,.cls-64,.cls-79,.cls-91{mix-blend-mode:overlay;}.cls-65{stroke-width:3px;}.cls-66{fill:#413a47;}.cls-67{fill:#494251;}.cls-68{fill:#5f5468;}.cls-69{fill:#2ea397;}.cls-70{stroke:#8d8692;}.cls-71{fill:#2a6596;}.cls-72,.cls-73{fill:#d6cedd;}.cls-73{opacity:0.75;}.cls-74{fill:#ff5c50;}.cls-75{fill:#3daea2;}.cls-76{fill:#40c0dd;}.cls-77{fill:#a6e1ff;}.cls-78,.cls-80{fill:#ff5245;}.cls-79{opacity:0.16;}.cls-80{stroke:#413a47;}.cls-81{fill:#209cd3;}.cls-84{fill:#f4e453;}.cls-85{fill:#fdc60b;}.cls-86{fill:#f393a0;}.cls-87{fill:#c7f6dd;}.cls-88{fill:#c1dce5;}.cls-89{stroke:#c1dce5;}.cls-90{stroke:#fff;}.cls-91{opacity:0.25;}.cls-92{opacity:0.34;}.cls-93{fill:#a4bec1;}.cls-94{fill:#c3dcdd;}.cls-95{fill:#a9a1b2;}.cls-96{fill:#ff9676;}.cls-107,.cls-97{fill:#475984;}.cls-98{fill:#ff6a5f;}.cls-104,.cls-109,.cls-128,.cls-141,.cls-99{mix-blend-mode:multiply;}.cls-100{fill:#3cada1;}.cls-101{fill:#21d5c8;}.cls-102{fill:#835684;}.cls-103{fill:#9d6aa0;}.cls-104{opacity:0.66;}.cls-105{fill:#cece15;}.cls-106{fill:#ffcf48;}.cls-108{fill:#fffb0f;}.cls-109{opacity:0.33;}.cls-110{fill:#888fa3;}.cls-111{fill:#cadbef;}.cls-112{opacity:0.46;}.cls-113{fill:#dd7662;}.cls-114{fill:#bc3335;}.cls-115{stroke-width:26.81px;}.cls-116,.cls-122{stroke-width:25.51px;}.cls-117{fill:#cad80e;}.cls-118{fill:#3b2d3c;}.cls-119{fill:#ff645c;}.cls-120{fill:#97aaad;}.cls-121{stroke:#97aaad;stroke-width:4.01px;}.cls-122,.cls-124,.cls-136{stroke:#433a47;}.cls-123{fill:#534859;}.cls-124{stroke-width:29.04px;}.cls-125{stroke:#534859;stroke-width:21px;}.cls-126{fill:#b8d3e0;}.cls-127{fill:#87b4c6;}.cls-129{fill:#1f3242;}.cls-130{fill:#91ad1a;}.cls-131{fill:#6d352e;}.cls-132{fill:#562c24;}.cls-133{fill:#c6ae8b;}.cls-134{stroke:#aa8b79;}.cls-134,.cls-135{stroke-width:8px;}.cls-135{stroke:#7d7087;}.cls-136{stroke-width:20px;}.cls-137{fill:#362e3a;}.cls-138{fill:#ddd3b8;}.cls-139{fill:#c96855;}.cls-140,.cls-141{opacity:0.4;}.cls-141{fill:#8271a8;}.cls-142{fill:#f9f2e4;}.cls-143{fill:#fffaf0;}.cls-144{stroke:#72372f;stroke-width:2.08px;}.cls-145{fill:#8ec426;}.cls-146{fill:#407f26;}.cls-147{fill:#589e3b;}.cls-148{fill:#685b72;}.cls-149{opacity:0.35;}.cls-150{fill:#d1af8c;}.cls-151{fill:#ffca76;}.cls-152{fill:#f99d5f;}</style><linearGradient id="linear-gradient" x1="416.36" y1="65.55" x2="416.36" y2="370.59" gradientUnits="userSpaceOnUse"><stop offset="0" stop-color="#3767ae"/><stop offset="0.14" stop-color="#3e7abe"/><stop offset="0.5" stop-color="#4ca4e1"/><stop offset="0.78" stop-color="#56bdf7"/><stop offset="0.94" stop-color="#59c7ff"/></linearGradient></defs><title>coding</title><g class="cls-1"><g id="Layer_1" data-name="Layer 1"><polygon class="cls-2" points="124.75 377.06 289.08 561.89 440.54 561.89 456.67 572.39 472.16 568.28 309.49 377.06 124.75 377.06"/><polygon class="cls-2" points="544.45 501.38 580.16 548.28 667.16 514.28 656.52 467.67 672.01 463.56 598.48 360.06 544.45 501.38"/><path class="cls-3" d="M660.66,458H533.36a4,4,0,0,0-4,4v48.87H422.06V439a6.19,6.19,0,0,0-6.19-6.19H219.54a6.19,6.19,0,0,0-6.19,6.19v71.85h-40.5v-35.2a3.27,3.27,0,0,0-3.81-3.31L53.16,488.29a4.49,4.49,0,0,0-3.81,4.32v18.28H42.58a2,2,0,0,0-2,2v28.66H63.35v31a3.45,3.45,0,0,0,3.81,3.56L188,560.19a4.47,4.47,0,0,0,3.81-4.31V541.55h21.5v27.33c0,3.42,2.77,6.6,6.19,6.6H415.87a6.19,6.19,0,0,0,6.19-6.19V541.55H529.35v4.66a4.24,4.24,0,0,0,4,4.27h127.3a4,4,0,0,0,4-4V462A4,4,0,0,0,660.66,458Z" transform="translate(-40.58 -187.28)"/><path class="cls-4" d="M810,549c-13.75-3.73-13.21-23.82-13.21-31.07v-38" transform="translate(-40.58 -187.28)"/><polygon class="cls-2" points="624.5 336.17 547.2 336.17 696.05 511.51 700.21 503.98 700.21 413.7 624.5 336.17"/><path class="cls-2" d="M650.64,541.55v40.68a2,2,0,0,1-2,2h-503a5.91,5.91,0,0,0-3.47,1.36l-21.58,20a3.92,3.92,0,0,1-3.39.8L42.5,584.79a2.84,2.84,0,0,1-1.92-2.56V541.55Z" transform="translate(-40.58 -187.28)"/><polygon class="cls-2" points="536.95 500.69 438.47 386.98 568.83 345.04 568.83 493.98 536.95 500.69"/><path class="cls-5" d="M807.74,597.22v-7.67c0-8,2-13.67-10-13.67h-101c-33.94,0-19.69,17.67-74,17.67-58,0-49.34-17.67-90-17.67H338.24c-26,0-32.5-15.83-53-15.83s-25.5,15.83-47.5,15.83h-28" transform="translate(-40.58 -187.28)"/><polygon class="cls-2" points="815.66 442.78 738.16 451.28 728.16 439.78 728.16 405.78 815.66 405.78 815.66 442.78"/><rect class="cls-3" x="705.63" y="282.36" width="112.38" height="37.23" rx="2" ry="2"/><rect class="cls-6" x="715.96" y="278.36" width="107.38" height="24.23" rx="2" ry="2"/><rect class="cls-7" x="715.96" y="286.36" width="107.39" height="26.24" rx="2" ry="2"/><path class="cls-8" d="M772.08,495.89a8.34,8.34,0,1,1,8.33-8.34A8.35,8.35,0,0,1,772.08,495.89Z" transform="translate(-40.58 -187.28)"/><path class="cls-3" d="M778.41,490.22l-4.3,9.65H758.54a2,2,0,0,1-2-2v-5.93l12.37-10.06Z" transform="translate(-40.58 -187.28)"/><path class="cls-3" d="M815.55,487.13v12.74H794V487.13c0-3.08,1.11-4.7,3.7-4.7h13.17A4.7,4.7,0,0,1,815.55,487.13Z" transform="translate(-40.58 -187.28)"/><path class="cls-8" d="M808.58,495.89a8.34,8.34,0,1,1,8.33-8.34A8.35,8.35,0,0,1,808.58,495.89Z" transform="translate(-40.58 -187.28)"/><path class="cls-8" d="M845.08,495.89a8.34,8.34,0,1,1,8.33-8.34A8.35,8.35,0,0,1,845.08,495.89Z" transform="translate(-40.58 -187.28)"/><path class="cls-9" d="M548.08,410.88V521.55c0,15.33,2,33.33,25.33,33.33h163c36,0,35.33-5.66,35.33-66.33" transform="translate(-40.58 -187.28)"/><rect class="cls-10" x="266.16" y="94.78" width="9.5" height="11.75" rx="2.77" ry="2.77"/><path class="cls-11" d="M269.41,365.55c13.33,0,21.33-.67,21.33-17.33s-6.66-62,28-62" transform="translate(-40.58 -187.28)"/><polygon class="cls-2" points="125.35 511.51 26.5 396.06 133.21 377.69 129.51 503.98 125.35 511.51"/><path class="cls-5" d="M255.07,378.67c16,0,84.38,8.62,84.38-32.23" transform="translate(-40.58 -187.28)"/><path class="cls-5" d="M244.74,378.67c16,0,84.38,8.62,84.38-32.23" transform="translate(-40.58 -187.28)"/><path class="cls-12" d="M120.58,562.65l4.69,1.07a1.34,1.34,0,0,1,1,1.23v5.27a1,1,0,0,1-1,1h22.09c25.77,0,21.41,21.53,21.41,21.53" transform="translate(-40.58 -187.28)"/><path class="cls-12" d="M280.52,476.29" transform="translate(-40.58 -187.28)"/><path class="cls-12" d="M126.24,540v6.27a1,1,0,0,0,1,1h63.81" transform="translate(-40.58 -187.28)"/><path class="cls-5" d="M200.47,552.63c66.94,0,54.41-28.32,54.41-92" transform="translate(-40.58 -187.28)"/><path class="cls-5" d="M224.47,533.83c66.94,0,54.42-28.32,54.42-92" transform="translate(-40.58 -187.28)"/><polygon class="cls-2" points="98.85 511.51 60.14 466.3 46.85 466.78 35.49 453.51 35.49 437.82 0 396.06 103.01 396.98 103.01 503.98 98.85 511.51"/><rect class="cls-13" x="536.45" y="211.62" width="138.42" height="182.78" rx="2" ry="2"/><rect class="cls-14" x="536.45" y="216.46" width="138.42" height="97.68" rx="2" ry="2"/><path class="cls-15" d="M150,460.25V698.32a2,2,0,0,1-2,2h-8.85a2,2,0,0,1-2-2V472.4a5.4,5.4,0,0,1,1.45-3.38l9.95-9.4C149.36,458.87,150,459.15,150,460.25Z" transform="translate(-40.58 -187.28)"/><rect class="cls-16" x="96.58" y="295.28" width="12.85" height="7"/><rect class="cls-10" x="123.39" y="317.07" width="66.24" height="151.39" rx="2" ry="2"/><rect class="cls-17" x="46.85" y="349.29" width="36.24" height="119.17" rx="2" ry="2"/><rect class="cls-18" x="46.85" y="349.29" width="36.23" height="97.38" rx="2" ry="2"/><g class="cls-19"><rect class="cls-20" x="123.39" y="317.07" width="66.24" height="40.18" rx="2" ry="2"/></g><rect class="cls-20" x="123.39" y="380.66" width="66.24" height="132.38" rx="2" ry="2"/><g class="cls-19"><rect class="cls-20" x="130.76" y="386.78" width="51.48" height="71.45" rx="2" ry="2"/><rect class="cls-21" x="134.34" y="425.36" width="44.33" height="12.07" rx="2" ry="2"/></g><path class="cls-15" d="M735.77,459.67c-.77-.78-1.4-.52-1.4.58V698.32a2,2,0,0,0,2,2h8.84a2,2,0,0,0,2-2V473.22a5.63,5.63,0,0,0-1.41-3.42Z" transform="translate(-40.58 -187.28)"/><rect class="cls-16" x="694.08" y="295.28" width="12.35" height="7"/><path class="cls-15" d="M746.7,481.93a1.46,1.46,0,0,1-1.48,1.93H139.16a1.63,1.63,0,0,1-1.66-2L154,384a2.44,2.44,0,0,1,2.33-2h562a2.74,2.74,0,0,1,2.51,1.93Z" transform="translate(-40.58 -187.28)"/><path class="cls-13" d="M747.21,365.28V471.52a2,2,0,0,1-2,2H139.16a2,2,0,0,1-2-2V365.28a2,2,0,0,1,2-2H745.21a2,2,0,0,1,2,2Z" transform="translate(-40.58 -187.28)"/><path class="cls-16" d="M510.72,363.28V365a6.19,6.19,0,0,1-6.19,6.19H308.2A6.19,6.19,0,0,1,302,365v-1.68Z" transform="translate(-40.58 -187.28)"/><polygon class="cls-16" points="383.66 186.78 317.72 197.83 297.71 176.01 382.75 176.01 383.66 186.78"/><path class="cls-16" d="M483.41,396.55v17.12a3.66,3.66,0,0,1-3.37,3.65L348.61,428a3.69,3.69,0,0,1-3-1.2L341,421.69a3.68,3.68,0,0,1-.95-2.46V396.55a3.67,3.67,0,0,1,3.67-3.67h136A3.67,3.67,0,0,1,483.41,396.55Z" transform="translate(-40.58 -187.28)"/><g class="cls-1"><g class="cls-19"><g class="cls-1"><path class="cls-22" d="M314.07,399.28" transform="translate(-40.58 -187.28)"/></g></g></g><rect class="cls-23" x="541.45" y="333.6" width="128.42" height="162.78"/><rect class="cls-23" x="546.42" y="410.49" width="64.15" height="45.97"/><polygon class="cls-24" points="582.56 456.52 572.78 407.86 547.5 412.93 547.5 430.6 582.56 456.52"/><rect class="cls-15" x="541.45" y="382.8" width="128.42" height="35.59"/><rect class="cls-13" x="541.45" y="374.9" width="128.42" height="35.59"/><path class="cls-16" d="M710.45,562.17v35.59H701.7c-9.47-10.44-26-28.57-32.33-35.59Z" transform="translate(-40.58 -187.28)"/><path class="cls-25" d="M684,548.67l-2.79,39-5.75,4.3c-9.47-10.44-28.12-30.86-34.5-37.88Z" transform="translate(-40.58 -187.28)"/><path class="cls-16" d="M616,562.17,605,585.89h-8.75c-9.47-10.44-9.47-12.32-15.85-19.34l3-5Z" transform="translate(-40.58 -187.28)"/><rect class="cls-26" x="555.68" y="375.55" width="62.33" height="23.07"/><rect class="cls-27" x="555.68" y="365.6" width="62.33" height="11.07"/><rect class="cls-28" x="555.68" y="345.04" width="62.48" height="20.56"/><rect class="cls-13" x="541.45" y="456.46" width="128.42" height="35.58"/><path class="cls-16" d="M710.45,642.17v35.59H701.7c-9.47-10.44-26-28.57-32.33-35.59Z" transform="translate(-40.58 -187.28)"/><path class="cls-15" d="M713.45,515.88H579a2,2,0,0,0-2,2V686.66a2,2,0,0,0,2,2H713.45a2,2,0,0,0,2-2V517.88A2,2,0,0,0,713.45,515.88Zm-8,162.78H587V525.88H705.45Z" transform="translate(-40.58 -187.28)"/><polygon class="cls-29" points="582.81 474.19 567.17 477.33 557.54 479.26 547.75 430.59 573.03 425.53 580.89 464.63 582.81 474.19"/><polygon class="cls-24" points="582.81 474.19 569.58 483.47 567.17 477.33 567.37 458.38 581.85 458.38 582.81 474.19"/><rect class="cls-30" x="569.49" y="454.25" width="62.33" height="11.83"/><rect class="cls-31" x="569.49" y="464.23" width="62.33" height="19.24"/><path class="cls-20" d="M345.61,427.69a3,3,0,0,0,2.82,3.13H484.24a3,3,0,0,0,2.82-3.13V406.52a3,3,0,0,0-2.82-3.13H348.43a3,3,0,0,0-2.82,3.13Z" transform="translate(-40.58 -187.28)"/><path class="cls-10" d="M345.61,420.93a3,3,0,0,0,2.82,3.12H484.24a3,3,0,0,0,2.82-3.13V399.76a3,3,0,0,0-2.82-3.13H348.43a3,3,0,0,0-2.82,3.13Z" transform="translate(-40.58 -187.28)"/><rect class="cls-20" x="316.93" y="174.48" width="117.65" height="25.62" rx="3.73" ry="3.73"/><path class="cls-10" d="M475.19,359.17v18.16a3.74,3.74,0,0,1-3.73,3.73H361.26a3.74,3.74,0,0,1-3.72-3.73V359.17a3.74,3.74,0,0,1,3.72-3.73h110.2A3.74,3.74,0,0,1,475.19,359.17Z" transform="translate(-40.58 -187.28)"/><path class="cls-20" d="M472.07,355.44H360.66a3.14,3.14,0,0,0-3.12,3.13v7.67a3.14,3.14,0,0,1,3.12-3.12H472.07a3.13,3.13,0,0,1,3.12,3.12v-7.67A3.13,3.13,0,0,0,472.07,355.44Z" transform="translate(-40.58 -187.28)"/><path class="cls-32" d="M312,193.47v126.3a6.42,6.42,0,0,0,.24,1.71A6.19,6.19,0,0,0,318.2,326H514.53a6.18,6.18,0,0,0,6.19-6.19V193.47a6.18,6.18,0,0,0-6.19-6.19H318.2A6.19,6.19,0,0,0,312,193.47Z" transform="translate(-40.58 -187.28)"/><path class="cls-10" d="M520.72,199.71V330a6.19,6.19,0,0,1-6.19,6.19H318.2c-3.42,0-6.19-3.18-6.19-6.6V199.71a6.19,6.19,0,0,1,6.19-6.19H514.53A6.19,6.19,0,0,1,520.72,199.71Z" transform="translate(-40.58 -187.28)"/><rect class="Graphic-Style-62" x="279.91" y="14.99" width="191.73" height="120.58"/><polygon class="cls-10" points="463.19 158.63 392.62 158.07 380.65 135.57 463.19 135.57 463.19 158.63"/><path class="cls-20" d="M512,202.29V319.56H320.77V202.29H512m2.57-3.81H318.2a1.24,1.24,0,0,0-1.24,1.24V323.37H515.77V199.72a1.24,1.24,0,0,0-1.24-1.24Z" transform="translate(-40.58 -187.28)"/><path class="cls-10" d="M345.61,420.93a3,3,0,0,0,2.82,3.12H484.24a3,3,0,0,0,2.82-3.13V399.76a3,3,0,0,0-2.82-3.13H348.43a3,3,0,0,0-2.82,3.13Z" transform="translate(-40.58 -187.28)"/><path class="cls-32" d="M351,401.46a1.49,1.49,0,0,1,1.41-1.56H456.89a1.49,1.49,0,0,1,1.41,1.56v.79a1.49,1.49,0,0,1-1.41,1.56H352.38a1.49,1.49,0,0,1-1.41-1.56Z" transform="translate(-40.58 -187.28)"/><path class="cls-32" d="M351,409.45a1.5,1.5,0,0,1,1.41-1.56H456.89a1.5,1.5,0,0,1,1.41,1.56v.79a1.49,1.49,0,0,1-1.41,1.56H352.38a1.49,1.49,0,0,1-1.41-1.56Z" transform="translate(-40.58 -187.28)"/><path class="cls-32" d="M356.87,417.45a1.5,1.5,0,0,1,1.41-1.56H451a1.5,1.5,0,0,1,1.41,1.56v.79A1.5,1.5,0,0,1,451,419.8H358.28a1.5,1.5,0,0,1-1.41-1.56Z" transform="translate(-40.58 -187.28)"/><path class="cls-32" d="M473.81,407.89a1.5,1.5,0,0,1,1.41,1.56v.79a1.5,1.5,0,0,1-1.41,1.56h-2.38a1.5,1.5,0,0,1-1.41-1.56v-.79a1.5,1.5,0,0,1,1.41-1.56Z" transform="translate(-40.58 -187.28)"/><path class="cls-32" d="M480.9,407.89a1.5,1.5,0,0,1,1.41,1.56v.79a1.5,1.5,0,0,1-1.41,1.56h-2.37a1.49,1.49,0,0,1-1.41-1.56v-.79a1.5,1.5,0,0,1,1.41-1.56Z" transform="translate(-40.58 -187.28)"/><path class="cls-32" d="M466.58,407.89a1.5,1.5,0,0,1,1.41,1.56v.79a1.49,1.49,0,0,1-1.41,1.56h-2.75a1.49,1.49,0,0,1-1.41-1.56v-.79a1.5,1.5,0,0,1,1.41-1.56Z" transform="translate(-40.58 -187.28)"/><path class="cls-32" d="M473.81,415.56a1.5,1.5,0,0,1,1.41,1.56v.79a1.5,1.5,0,0,1-1.41,1.56h-2.38a1.5,1.5,0,0,1-1.41-1.56v-.79a1.5,1.5,0,0,1,1.41-1.56Z" transform="translate(-40.58 -187.28)"/><path class="cls-32" d="M480.9,415.56a1.5,1.5,0,0,1,1.41,1.56v.79a1.5,1.5,0,0,1-1.41,1.56h-2.37a1.49,1.49,0,0,1-1.41-1.56v-.79a1.5,1.5,0,0,1,1.41-1.56Z" transform="translate(-40.58 -187.28)"/><path class="cls-32" d="M466.58,415.56a1.5,1.5,0,0,1,1.41,1.56v.79a1.49,1.49,0,0,1-1.41,1.56h-2.75a1.49,1.49,0,0,1-1.41-1.56v-.79a1.5,1.5,0,0,1,1.41-1.56Z" transform="translate(-40.58 -187.28)"/><path class="cls-32" d="M473.81,399.9a1.5,1.5,0,0,1,1.41,1.56v.79a1.5,1.5,0,0,1-1.41,1.56h-2.38a1.5,1.5,0,0,1-1.41-1.56v-.79a1.5,1.5,0,0,1,1.41-1.56Z" transform="translate(-40.58 -187.28)"/><path class="cls-32" d="M480.9,399.9a1.5,1.5,0,0,1,1.41,1.56v.79a1.5,1.5,0,0,1-1.41,1.56h-2.37a1.49,1.49,0,0,1-1.41-1.56v-.79a1.49,1.49,0,0,1,1.41-1.56Z" transform="translate(-40.58 -187.28)"/><path class="cls-32" d="M466.58,399.9a1.49,1.49,0,0,1,1.41,1.56v.79a1.49,1.49,0,0,1-1.41,1.56h-2.75a1.49,1.49,0,0,1-1.41-1.56v-.79a1.49,1.49,0,0,1,1.41-1.56Z" transform="translate(-40.58 -187.28)"/><path class="cls-16" d="M537.92,427.06v4.59a8.88,8.88,0,0,1-8.86,8.86h-2.68a8.88,8.88,0,0,1-8.85-8.86v-4.59a8.88,8.88,0,0,1,8.85-8.86h2.68a8.69,8.69,0,0,1,1.92.22A8.88,8.88,0,0,1,537.92,427.06Z" transform="translate(-40.58 -187.28)"/><path class="cls-10" d="M544.41,428.62v4.59a8.88,8.88,0,0,1-8.85,8.86h-2.68a8.89,8.89,0,0,1-8.86-8.86v-4.59a8.89,8.89,0,0,1,8.86-8.86h2.68a8.76,8.76,0,0,1,1.92.21A8.9,8.9,0,0,1,544.41,428.62Z" transform="translate(-40.58 -187.28)"/><path class="cls-33" d="M544.41,439.62v4.59a8.88,8.88,0,0,1-8.85,8.86H534a9.59,9.59,0,0,1-4-7.79v-5a9.59,9.59,0,0,1,7.55-9.35A8.9,8.9,0,0,1,544.41,439.62Z" transform="translate(-40.58 -187.28)"/><line class="cls-34" x1="493.3" y1="245.29" x2="493.3" y2="247.85"/><polygon class="cls-20" points="409.41 169.78 343.47 180.83 331.86 168.17 409.27 168.17 409.41 169.78"/><rect class="cls-35" x="343.15" y="157.37" width="65.27" height="24.21" rx="2.07" ry="2.07"/><rect class="cls-20" x="343.15" y="145.87" width="65.27" height="24.21" rx="2.07" ry="2.07"/><path class="cls-16" d="M287.58,393.22c-24.78,4.06-101.26,17.54-103.95,17.95-3.2.48-4.31,2.51-7.22.05-4.33-3.67-35.94-36.53-39.25-40.17v-5.77a2,2,0,0,1,2-2H274l14.16,21.27S296.14,391.81,287.58,393.22Z" transform="translate(-40.58 -187.28)"/><path class="cls-36" d="M219.16,586.63l-15.52,27.16a3.58,3.58,0,0,1-3.1,2.29H164v-9.91l11.76-20.62Z" transform="translate(-40.58 -187.28)"/><path class="cls-16" d="M542.56,471.52l-37.58-5-.41-.58c-3-4.24-6.22-8.77-9.55-13.18-3.17-4.22-6.46-8.32-9.75-12-9.28-10.22-13.41-5.74-13.85-5.77a10.76,10.76,0,0,1,1.29-21.49c17,1,31.81,20.1,49.42,44.95.26.37-15.58.32-7.39,1.73-.91-8.54,4.63-12.17,8.19-21.35.36-.93,6-4.18,8-4.41.2,0,.39,0,.58,0,5.66-.34,7.73-5.45,8.39.27C540.24,437.65,542.26,459.35,542.56,471.52Z" transform="translate(-40.58 -187.28)"/><rect class="cls-36" x="134.33" y="444.61" width="8.91" height="3.53" rx="1.43" ry="1.43"/><rect class="cls-36" x="146.64" y="444.61" width="8.91" height="3.53" rx="1.43" ry="1.43"/><rect class="cls-36" x="134.34" y="394.03" width="44.33" height="12.07" rx="2" ry="2"/><rect class="cls-36" x="134.33" y="413.28" width="8.91" height="3.53" rx="1.43" ry="1.43"/><rect class="cls-36" x="146.64" y="413.28" width="8.91" height="3.53" rx="1.43" ry="1.43"/><rect class="cls-21" x="152.67" y="480.67" width="7.68" height="7.55" rx="2" ry="2"/><rect class="cls-21" x="154.06" y="492.59" width="4.91" height="5.18" rx="2" ry="2"/><path class="cls-37" d="M531.41,437.55c-1.26,0-2.91-7.91-3.33-9.17l.09-7.46a3,3,0,1,1,5.69-1.9l1.36,4.05c.52,1.58,2.09,10.12.52,10.65C535.43,433.82,531.72,437.55,531.41,437.55Z" transform="translate(-40.58 -187.28)"/><path class="cls-7" d="M102.57,655.74H89.43a2,2,0,0,1-2-2V638.06" transform="translate(-40.58 -187.28)"/><path class="cls-2" d="M77.78,626.78" transform="translate(-40.58 -187.28)"/><path class="cls-38" d="M117.34,594.65a5,5,0,0,1-.43,2c-1.38,3.15-5.94,5.46-11.36,5.46s-10-2.31-11.36-5.46a5,5,0,0,1-.43-2c0-4.12,5.28-7.46,11.79-7.46S117.34,590.53,117.34,594.65Z" transform="translate(-40.58 -187.28)"/><path class="cls-39" d="M116.91,596.65c-1.38,3.15-5.94,5.46-11.36,5.46s-10-2.31-11.36-5.46c1.38-3.15,5.94-5.46,11.36-5.46S115.53,593.5,116.91,596.65Z" transform="translate(-40.58 -187.28)"/><path class="cls-38" d="M117.34,572.06a5,5,0,0,1-.43,2c-1.38,3.15-5.94,5.46-11.36,5.46s-10-2.31-11.36-5.46a5,5,0,0,1-.43-2c0-4.12,5.28-7.46,11.79-7.46S117.34,567.94,117.34,572.06Z" transform="translate(-40.58 -187.28)"/><path class="cls-39" d="M116.91,574.06a6.5,6.5,0,0,1-1.58,2.17h0c-2.12,2-5.7,3.28-9.77,3.28s-7.65-1.3-9.77-3.28h0a6.5,6.5,0,0,1-1.58-2.17,6.36,6.36,0,0,1,1.41-2,11.24,11.24,0,0,1,4.34-2.56,17.93,17.93,0,0,1,11.22,0,11.24,11.24,0,0,1,4.34,2.56A6.36,6.36,0,0,1,116.91,574.06Z" transform="translate(-40.58 -187.28)"/><path class="cls-38" d="M117.34,549.47a5,5,0,0,1-.43,2c-1.38,3.15-5.94,5.46-11.36,5.46s-10-2.31-11.36-5.46a5,5,0,0,1-.43-2c0-4.12,5.28-7.46,11.79-7.46S117.34,545.35,117.34,549.47Z" transform="translate(-40.58 -187.28)"/><path class="cls-39" d="M116.91,551.47a7,7,0,0,1-2.11,2.62,16.48,16.48,0,0,1-18.5,0,7,7,0,0,1-2.11-2.62,6.43,6.43,0,0,1,1.41-2,12.92,12.92,0,0,1,7.17-3.26,18.51,18.51,0,0,1,5.56,0,12.92,12.92,0,0,1,7.17,3.26A6.43,6.43,0,0,1,116.91,551.47Z" transform="translate(-40.58 -187.28)"/><path class="cls-40" d="M115.5,569.5v5.56a4.19,4.19,0,0,1-.17,1.17h0c-2.12,2-5.7,3.28-9.77,3.28s-7.65-1.3-9.77-3.28h0a4.19,4.19,0,0,1-.17-1.17V569.5Z" transform="translate(-40.58 -187.28)"/><path class="cls-40" d="M115.5,546.22v5.56a4.14,4.14,0,0,1-.36,1.69,3.43,3.43,0,0,1-.34.62,16.48,16.48,0,0,1-18.5,0,3.43,3.43,0,0,1-.34-.62,4.14,4.14,0,0,1-.36-1.69v-5.56Z" transform="translate(-40.58 -187.28)"/><rect class="cls-41" x="59.63" y="347.29" width="10.68" height="18.26" rx="3.49" ry="3.49"/><path class="cls-41" d="M115.51,545.53a4.11,4.11,0,0,1-.37,1.68c-1.16,2.66-5,4.61-9.59,4.61s-8.42-2-9.59-4.61a4.09,4.09,0,0,1-.36-1.68c0-3.48,4.46-6.3,10-6.3S115.51,542.05,115.51,545.53Z" transform="translate(-40.58 -187.28)"/><rect class="cls-40" x="59.63" y="356.06" width="10.68" height="10.26" rx="3.49" ry="3.49"/><path class="cls-41" d="M115.51,568.81a4.11,4.11,0,0,1-.37,1.68c-1.16,2.66-5,4.61-9.59,4.61s-8.42-2-9.59-4.61a4.09,4.09,0,0,1-.36-1.68c0-3.48,4.46-6.3,10-6.3S115.51,565.33,115.51,568.81Z" transform="translate(-40.58 -187.28)"/><rect class="cls-41" x="59.63" y="372.57" width="10.68" height="18.26" rx="3.49" ry="3.49"/><rect class="cls-40" x="59.63" y="381.9" width="10.68" height="10.26" rx="3.49" ry="3.49"/><path class="cls-42" d="M105.55,563.51c0-3.08,2-5.29,4.91-5.29,6.45,0,15.78-1.62,15.78,6.75" transform="translate(-40.58 -187.28)"/><path class="cls-42" d="M105.55,538.54c0-3.08,2-5.29,4.91-5.29,6.45,0,15.78-1.62,15.78,6.75" transform="translate(-40.58 -187.28)"/><rect class="cls-40" x="54.56" y="424.72" width="20.81" height="10.24" rx="1.31" ry="1.31"/><path class="cls-10" d="M96.43,607.42a1,1,0,0,0-1.28,1v7.61a1.7,1.7,0,0,0,1.28,1.59l7.84,1.69a15.09,15.09,0,0,0,2.59.28h7.79a1.31,1.31,0,0,0,1.31-1.31V610.7a1.31,1.31,0,0,0-1.31-1.31h-7.79a15.09,15.09,0,0,1-2.59-.28Z" transform="translate(-40.58 -187.28)"/><g class="cls-43"><line class="cls-44" x1="57.86" y1="441.67" x2="72.09" y2="441.67"/></g><g class="cls-45"><rect class="cls-36" x="62.22" y="408.05" width="5.5" height="2.22" rx="0.5" ry="0.5"/></g><g class="cls-45"><path class="cls-36" d="M103.3,602a.58.58,0,0,1-.5-.55v-.59a.5.5,0,0,1,.5-.5h4.5a.5.5,0,0,1,.5.5v.59a.57.57,0,0,1-.49.55,22.15,22.15,0,0,1-2.26.16A21.84,21.84,0,0,1,103.3,602Z" transform="translate(-40.58 -187.28)"/></g><line class="cls-46" x1="59.86" y1="441.67" x2="70.09" y2="441.67"/><path class="cls-47" d="M293.82,388.79h0c0,.43,0,.77,0,.88a5.86,5.86,0,0,1-4.5,5.08L183.41,413.22l-1.5.25c-1.87.25-5.37-1-7.25-3.88L155.2,376.83a3.4,3.4,0,0,1-.35-2.15c0-2-.37-5.16.39-5.3l2.63,4.09,109-18.9,1.49-.26a4.37,4.37,0,0,1,.72-.06,4.06,4.06,0,0,1,3.58,2.21l.62.84,20.36,30C293.91,387.73,293.87,387.66,293.82,388.79Z" transform="translate(-40.58 -187.28)"/><g class="cls-1"><path class="cls-48" d="M269.1,349a4.37,4.37,0,0,0-.72.06L156.45,368.47c-1.53.27-2.32,1.26-1.25,3.11l20.55,34.69a4.07,4.07,0,0,0,3.58,2.22,3.51,3.51,0,0,0,.72-.07L292,389c1.53-.26,2.33-1.26,1.25-3.11l-20.55-34.69A4.06,4.06,0,0,0,269.1,349" transform="translate(-40.58 -187.28)"/><path class="cls-10" d="M274.67,380.53l-.21,0-91.18,15.8c-.76.14-.94,1-.4,1.93l.49.84a2.83,2.83,0,0,0,2.16,1.47l.19,0,91.18-15.81c.76-.14.94-1,.41-1.93l-.48-.84a2.83,2.83,0,0,0-2.16-1.46" transform="translate(-40.58 -187.28)"/></g><path class="cls-32" d="M267.66,272.88l.22,26.84-1,41.63a6.06,6.06,0,0,1-4.87,5.83l-96.22,19.54-6.53,1.33c-2.71.46-6.81-4.51-6.85-7.26l0-3.12-.83-66.61a6,6,0,0,1,4.86-5.84l103.37-17.51.36-.06c1.92-.33,3.44.68,4.67,1.87C265.44,270.15,267.65,272.08,267.66,272.88Z" transform="translate(-40.58 -187.28)"/><path class="cls-49" d="M267.66,272.88l.22,26.84c-3.8,4.19-6.64,7.08-6.64,7.08l-34.75,6.75-47.25-.25-20.87-21.5c-2.7-1.91-2.25-4.75,2.5-5.5S258.48,270,258.48,270a12.35,12.35,0,0,0,1.27-2.28l.36-.06c1.92-.33,3.44.68,4.67,1.87C265.44,270.15,267.65,272.08,267.66,272.88Z" transform="translate(-40.58 -187.28)"/><path class="cls-50" d="M165.77,366.72l-6.53,1.33c-2.71.46-6.81-4.51-6.85-7.26l0-3.12c4.33,5.53,5.78,4,9.56,5.05C161.91,362.72,163.65,364.49,165.77,366.72Z" transform="translate(-40.58 -187.28)"/><path class="cls-51" d="M158.91,365.35a1.13,1.13,0,0,1-1.18-1.27l-.88-69.72a3.07,3.07,0,0,1,2.37-2.84l104.61-17.77.31,0a1.14,1.14,0,0,1,1.18,1.27l.87,69.73a3.06,3.06,0,0,1-2.37,2.84l-104.6,17.77Z" transform="translate(-40.58 -187.28)"/><path class="cls-20" d="M262.35,277.05l.84,67.55,0,0L160.7,362l-.85-67.56,0,0,102.47-17.4m1.79-6.33a5.54,5.54,0,0,0-.81.07L158.72,288.56a6.06,6.06,0,0,0-4.87,5.83l.88,69.73a4.12,4.12,0,0,0,4.18,4.23,4.59,4.59,0,0,0,.81-.07l104.61-17.76a6,6,0,0,0,4.86-5.84L268.32,275a4.14,4.14,0,0,0-4.18-4.24Z" transform="translate(-40.58 -187.28)"/><path class="cls-10" d="M266.92,354.84l-.21,0L163.92,372.69c-.76.13-.95,1-.41,1.92l10.13,16.75a2.81,2.81,0,0,0,2.15,1.46l.2,0L278.79,375c.76-.14.94-1,.4-1.93L269.07,356.3a2.85,2.85,0,0,0-2.15-1.46" transform="translate(-40.58 -187.28)"/><path class="cls-26" d="M465.84,223.39v83.32a2.74,2.74,0,0,1,0,.5,3.33,3.33,0,0,1-3.29,2.83H336.89a3.33,3.33,0,0,1-3.33-3.33V223.39a3.34,3.34,0,0,1,3.33-3.34H462.51A3.34,3.34,0,0,1,465.84,223.39Z" transform="translate(-40.58 -187.28)"/><path class="cls-52" d="M462.51,219.64H336.89a3.75,3.75,0,0,0-3.75,3.75v7.1H466.27v-7.1A3.75,3.75,0,0,0,462.51,219.64Z" transform="translate(-40.58 -187.28)"/><path class="cls-53" d="M340.81,225.18a2.09,2.09,0,1,1-2.09-2.09A2.09,2.09,0,0,1,340.81,225.18Z" transform="translate(-40.58 -187.28)"/><path class="cls-54" d="M346.61,224.67a2.1,2.1,0,1,1-1.51-1.51A2.1,2.1,0,0,1,346.61,224.67Z" transform="translate(-40.58 -187.28)"/><path class="cls-55" d="M352.46,224.67a2.09,2.09,0,1,1-1.5-1.51A2.07,2.07,0,0,1,352.46,224.67Z" transform="translate(-40.58 -187.28)"/><rect class="cls-56" x="301.55" y="57.66" width="34.4" height="1.93"/><rect class="cls-57" x="339.07" y="57.66" width="7.8" height="1.93"/><rect class="cls-58" x="301.55" y="50.24" width="22.96" height="1.93"/><rect class="cls-59" x="321.91" y="65.09" width="72.28" height="1.93"/><rect class="cls-56" x="301.55" y="65.09" width="16.72" height="1.93"/><rect class="cls-59" x="308.91" y="72.51" width="58.37" height="1.93"/><rect class="cls-58" x="370.45" y="72.51" width="10.01" height="1.93"/><rect class="cls-56" x="308.91" y="79.94" width="11.2" height="1.93"/><rect class="cls-56" x="308.91" y="87.36" width="11.2" height="1.93"/><rect class="cls-60" x="323.28" y="79.94" width="60.99" height="1.93"/><rect class="cls-60" x="323.28" y="87.36" width="31.92" height="1.93"/><rect class="cls-57" x="357.59" y="87.36" width="31.92" height="1.93"/><rect class="cls-57" x="322.95" y="94.79" width="42.3" height="1.93"/><rect class="cls-56" x="301.55" y="94.79" width="18.8" height="1.93"/><rect class="cls-61" x="369.14" y="94.79" width="5.91" height="1.93"/><path class="cls-62" d="M465.84,237.22v69.49a2.74,2.74,0,0,1,0,.5H450.7a3.35,3.35,0,0,1-3.34-3.34V240.55a3.34,3.34,0,0,1,3.34-3.33Z" transform="translate(-40.58 -187.28)"/><rect class="cls-48" x="280.16" y="15" width="191.22" height="8.28"/><path class="cls-20" d="M490.65,237.55v63.32a3.34,3.34,0,0,1-3.33,3.34H448.7a3.35,3.35,0,0,1-3.34-3.34V237.55a3.34,3.34,0,0,1,3.34-3.33h38.62A3.33,3.33,0,0,1,490.65,237.55Z" transform="translate(-40.58 -187.28)"/><path class="cls-52" d="M490.65,237.55v7.11H445.36v-7.11a3.34,3.34,0,0,1,3.34-3.33h38.62A3.33,3.33,0,0,1,490.65,237.55Z" transform="translate(-40.58 -187.28)"/><path class="cls-53" d="M452.62,239.35a2.09,2.09,0,1,1-2.09-2.09A2.1,2.1,0,0,1,452.62,239.35Z" transform="translate(-40.58 -187.28)"/><path class="cls-54" d="M458.48,239.35a2.1,2.1,0,1,1-2.1-2.09A2.1,2.1,0,0,1,458.48,239.35Z" transform="translate(-40.58 -187.28)"/><path class="cls-55" d="M464.33,239.35a2.09,2.09,0,1,1-2.09-2.09A2.09,2.09,0,0,1,464.33,239.35Z" transform="translate(-40.58 -187.28)"/><rect class="cls-26" x="412.36" y="67.53" width="2.86" height="2.02"/><rect class="cls-26" x="412.36" y="62.4" width="2.86" height="2.02"/><rect class="cls-26" x="415.36" y="72.66" width="2.86" height="2.02"/><rect class="cls-26" x="418.36" y="77.79" width="2.86" height="2.03"/><rect class="cls-26" x="418.36" y="82.92" width="2.86" height="2.02"/><rect class="cls-26" x="418.36" y="88.05" width="2.86" height="2.03"/><rect class="cls-26" x="412.36" y="93.18" width="2.86" height="2.02"/><rect class="cls-26" x="415.36" y="103.37" width="2.86" height="2.02"/><rect class="cls-26" x="415.36" y="98.24" width="2.86" height="2.02"/><rect class="cls-26" x="412.36" y="108.5" width="2.86" height="2.02"/><rect class="cls-63" x="417.36" y="67.53" width="7.86" height="2.02"/><rect class="cls-63" x="417.36" y="62.4" width="17.86" height="2.02"/><rect class="cls-63" x="420.36" y="72.66" width="12.86" height="2.02"/><rect class="cls-63" x="423.36" y="77.79" width="17.86" height="2.03"/><rect class="cls-63" x="423.36" y="82.92" width="13.86" height="2.02"/><rect class="cls-63" x="423.36" y="88.05" width="11.86" height="2.03"/><rect class="cls-63" x="417.36" y="93.18" width="23.86" height="2.02"/><rect class="cls-63" x="420.36" y="103.37" width="11.86" height="2.02"/><rect class="cls-63" x="420.36" y="98.24" width="14.86" height="2.02"/><rect class="cls-63" x="417.36" y="108.5" width="17.86" height="2.02"/><path class="cls-52" d="M327.19,206.56a2.1,2.1,0,1,1-2.1-2.09A2.1,2.1,0,0,1,327.19,206.56Z" transform="translate(-40.58 -187.28)"/><polygon class="cls-64" points="404.41 132.28 309.25 132.28 348.59 14.99 443.75 14.99 404.41 132.28"/><path class="cls-32" d="M520.72,329.55V342a6.19,6.19,0,0,1-6.19,6.19H318.2A6.19,6.19,0,0,1,312,342V329.55Z" transform="translate(-40.58 -187.28)"/><path class="cls-10" d="M421.43,335.45v4.77h-5.67v-4.77h5.67" transform="translate(-40.58 -187.28)"/><path class="cls-16" d="M736.71,390l-6,7.12a4.14,4.14,0,0,1-3.68,1.42L586.72,380.24a4.1,4.1,0,0,1-2.49-1.28l-14.49-15.68H715.05a4.11,4.11,0,0,1,3,1.32l18.53,19.95A4.12,4.12,0,0,1,736.71,390Z" transform="translate(-40.58 -187.28)"/><path class="cls-65" d="M620.08,352.88v7.34c0,6-3.34,11.66-15.34,9.33-8.14-1.58-33.37-5.67-45.19-7.62" transform="translate(-40.58 -187.28)"/><path class="cls-66" d="M690.88,399.67a9.88,9.88,0,0,1-8.09,3.21l-61.47-8.33c-2.72-.37-5-2-5-3.67s2.18-3.55,4.84-4.23l81-20.54a3.72,3.72,0,0,1,4.85,3.77v8.37c0,.75-1.42,3.11-3.15,5.25Z" transform="translate(-40.58 -187.28)"/><path class="cls-66" d="M619.87,388.69c0-2.37-.83-3.72-1.84-3a21.39,21.39,0,0,0-1.83,1.39v3c0,1.6.82,2.92,1.83,2.92S619.87,391.07,619.87,388.69Z" transform="translate(-40.58 -187.28)"/><path class="cls-10" d="M701.18,372.85c2.73.37,3.54,2.41,1.82,4.55l-8.7,10.76c-1.73,2.14-4.21,5.11-5.52,6.59s-4.6,2.42-7.33,2.07l-62.21-8.05c-2.73-.35-3.87-1.91-2.54-3.47s3.83-4.58,5.56-6.72L631,367.82a9.92,9.92,0,0,1,8.1-3.23Z" transform="translate(-40.58 -187.28)"/><polygon class="cls-66" points="666.89 186.33 654.54 201.46 581.16 191.78 593.51 176.66 666.89 186.33"/><polygon class="cls-67" points="644.35 169.19 649.37 194.33 595.62 187.44 590.66 162.11 644.35 169.19"/><polygon class="cls-66" points="644.37 162.24 649.64 188.62 593.27 181.39 588.06 154.82 644.37 162.24"/><path class="cls-66" d="M565.87,228.19l.8,115.24a5.94,5.94,0,0,0,.25,1.71,6.18,6.18,0,0,0,6,4.48l156.33,20a6.19,6.19,0,0,0,6.19-6.2V248.13a6.18,6.18,0,0,0-6.19-6.19L572.06,222A6.19,6.19,0,0,0,565.87,228.19Z" transform="translate(-40.58 -187.28)"/><path class="cls-66" d="M561.62,244.51c2.5,3.83.33-14.83.33-14.83l5.79-6,10,6.46Z" transform="translate(-40.58 -187.28)"/><path class="cls-66" d="M713.24,366.22c2.5,3.83,13.5,8.58,13.5,8.58l6.92-7.08-4.25-9.84Z" transform="translate(-40.58 -187.28)"/><path class="cls-68" d="M559.67,234.38V350.63a6.2,6.2,0,0,0,6.2,6.19l156.33,20a6.19,6.19,0,0,0,6.19-6.19V254.38a6.19,6.19,0,0,0-6.19-6.19l-156.33-20A6.2,6.2,0,0,0,559.67,234.38Z" transform="translate(-40.58 -187.28)"/><polygon class="cls-69" points="679.32 170.24 527.58 150.24 527.58 49.66 679.32 69.66 679.32 170.24"/><path class="cls-20" d="M719.63,257v97.28l-151.19-20V237l151.19,20m2.57-3.81-156.33-20a1.24,1.24,0,0,0-1.24,1.24V338l158.81,20V254.38a1.25,1.25,0,0,0-1.24-1.24Z" transform="translate(-40.58 -187.28)"/><path class="cls-70" d="M715.74,342.55" transform="translate(-40.58 -187.28)"/><path class="cls-70" d="M715.74,342.88" transform="translate(-40.58 -187.28)"/><polygon class="cls-71" points="537.16 61.59 541.32 62.15 651.01 77.13 651.01 162.76 541.32 147.78 537.16 147.21 537.16 61.59"/><polygon class="cls-72" points="546.32 81.56 550.46 82.13 550.46 79.2 546.32 78.63 546.32 81.56"/><polygon class="cls-72" points="546.32 74.14 550.46 74.71 550.46 71.78 546.32 71.22 546.32 74.14"/><polygon class="cls-72" points="550.66 89.58 554.79 90.14 554.79 87.21 550.66 86.65 550.66 89.58"/><polygon class="cls-72" points="546.32 96.4 550.46 96.97 550.46 94.04 546.32 93.47 546.32 96.4"/><polygon class="cls-72" points="550.46 104.38 546.32 103.82 546.32 100.89 550.46 101.46 550.46 104.38"/><polygon class="cls-72" points="559.13 112.99 555 112.43 555 109.5 559.13 110.06 559.13 112.99"/><polygon class="cls-72" points="546.32 118.66 550.46 119.23 550.46 116.3 546.32 115.73 546.32 118.66"/><polygon class="cls-72" points="550.66 133.99 554.79 134.55 554.79 131.62 550.66 131.06 550.66 133.99"/><polygon class="cls-72" points="550.66 126.57 554.79 127.13 554.79 124.2 550.66 123.64 550.66 126.57"/><polygon class="cls-72" points="546.32 140.82 550.46 141.38 550.46 138.45 546.32 137.89 546.32 140.82"/><polygon class="cls-56" points="553.55 79.62 558.56 80.31 558.56 83.23 553.55 82.55 553.55 79.62"/><polygon class="cls-73" points="572.59 82.22 572.59 85.15 560.81 83.54 560.81 80.62 572.59 82.22"/><polygon class="cls-73" points="620.51 88.77 620.51 91.69 574.85 85.46 574.85 82.53 620.51 88.77"/><polygon class="cls-73" points="652.74 129.77 649.69 129.35 649.69 119.97 652.74 120.38 652.74 129.77"/><polygon class="cls-26" points="652.74 162.87 649.69 162.45 649.69 128.66 652.74 129.07 652.74 162.87"/><polygon class="cls-26" points="652.74 120.57 649.69 120.15 649.69 76.95 652.74 77.37 652.74 120.57"/><polygon class="cls-74" points="553.55 72.2 562.02 73.35 562.02 76.29 553.55 75.13 553.55 72.2"/><polygon class="cls-73" points="579.38 75.72 579.38 78.66 564.28 76.6 564.28 73.66 579.38 75.72"/><polygon class="cls-75" points="557.89 87.63 562.86 88.31 562.86 91.25 557.89 90.57 557.89 87.63"/><polygon class="cls-73" points="598.73 93.21 598.73 96.14 565.12 91.56 565.12 88.62 598.73 93.21"/><polygon class="cls-76" points="553.55 94.46 559.8 95.31 559.8 98.25 553.55 97.39 553.55 94.46"/><polygon class="cls-74" points="566.06 96.17 566.06 99.1 562.06 98.55 562.06 95.62 566.06 96.17"/><polygon class="cls-73" points="579.38 97.98 579.38 100.92 568.31 99.41 568.31 96.47 579.38 97.98"/><polygon class="cls-76" points="553.55 101.89 570.79 104.24 570.79 107.16 553.55 104.81 553.55 101.89"/><polygon class="cls-73" points="606.96 109.18 606.96 112.1 573.04 107.47 573.04 104.55 606.96 109.18"/><polygon class="cls-56" points="562.24 110.49 566.62 111.08 566.62 114.01 562.24 113.41 562.24 110.49"/><polygon class="cls-73" points="612.74 117.38 612.74 120.31 568.86 114.32 568.86 111.39 612.74 117.38"/><polygon class="cls-76" points="553.55 116.72 565.08 118.29 565.08 121.23 553.55 119.65 553.55 116.72"/><polygon class="cls-74" points="567.34 118.6 573.29 119.41 573.29 122.35 567.34 121.53 567.34 118.6"/><polygon class="cls-73" points="588.07 121.43 588.07 124.36 575.53 122.65 575.53 119.72 588.07 121.43"/><polygon class="cls-75" points="557.89 132.04 563 132.74 563 135.68 557.89 134.98 557.89 132.04"/><polygon class="cls-73" points="619.52 140.46 619.52 143.39 565.26 135.98 565.26 133.05 619.52 140.46"/><polygon class="cls-74" points="557.89 124.63 563.84 125.44 563.84 128.36 557.89 127.55 557.89 124.63"/><polygon class="cls-56" points="566.08 125.75 570.51 126.35 570.51 129.27 566.08 128.67 566.08 125.75"/><polygon class="cls-73" points="608.29 131.51 608.29 134.43 572.75 129.58 572.75 126.66 608.29 131.51"/><polygon class="cls-76" points="553.55 138.88 566.89 140.7 566.89 143.62 553.55 141.8 553.55 138.88"/><polygon class="cls-73" points="579.38 142.4 579.38 145.33 569.15 143.93 569.15 141.01 579.38 142.4"/><polygon class="cls-26" points="537.16 147.21 541.39 147.79 541.39 62.16 537.16 61.59 537.16 147.21"/><polygon class="cls-26" points="537.16 61.59 541.39 62.16 652.86 77.38 652.86 71.94 541.39 56.72 537.16 56.14 537.16 61.59"/><polygon class="cls-77" points="527.91 146.9 532.39 147.51 679.05 166.96 679.05 161.19 532.39 141.75 527.91 141.14 527.91 146.9"/><path class="cls-78" d="M689.27,262.88l1.88.25a.53.53,0,0,0,.63-.55v-1.65a.74.74,0,0,0-.63-.72l-1.88-.26a.54.54,0,0,0-.64.55v1.65A.76.76,0,0,0,689.27,262.88Z" transform="translate(-40.58 -187.28)"/><polygon class="cls-79" points="648.06 65.54 612.85 158.48 547.9 149.92 583.11 56.98 648.06 65.54"/><path class="cls-80" d="M720.27,365.88l1.88.25a.53.53,0,0,0,.63-.55v-1.65a.74.74,0,0,0-.63-.72l-1.88-.26a.54.54,0,0,0-.64.55v1.65A.76.76,0,0,0,720.27,365.88Z" transform="translate(-40.58 -187.28)"/><path class="cls-26" d="M174.31,342.72a1.61,1.61,0,0,1-1.82-1.77V304a2.42,2.42,0,0,1,1.82-2.38l39.34-6.63a1.62,1.62,0,0,1,1.83,1.77v37a2.42,2.42,0,0,1-1.83,2.38Z" transform="translate(-40.58 -187.28)"/><path class="cls-52" d="M213.65,294.68l-39.34,6.63a2.71,2.71,0,0,0-2.05,2.68v4.43l43.45-7.32v-4.43A1.82,1.82,0,0,0,213.65,294.68Z" transform="translate(-40.58 -187.28)"/><path class="cls-53" d="M176.46,304.4a1.52,1.52,0,0,1-1.15,1.5,1,1,0,0,1-1.14-1.11,1.52,1.52,0,0,1,1.14-1.5A1,1,0,0,1,176.46,304.4Z" transform="translate(-40.58 -187.28)"/><path class="cls-54" d="M179.67,303.86a1.52,1.52,0,0,1-1.14,1.5,1,1,0,0,1-1.15-1.11,1.52,1.52,0,0,1,1.15-1.5A1,1,0,0,1,179.67,303.86Z" transform="translate(-40.58 -187.28)"/><path class="cls-55" d="M182.89,303.32a1.53,1.53,0,0,1-1.15,1.5,1,1,0,0,1-1.15-1.11,1.53,1.53,0,0,1,1.15-1.5A1,1,0,0,1,182.89,303.32Z" transform="translate(-40.58 -187.28)"/><polygon class="cls-26" points="172.13 112.19 145.52 116.67 145.52 114.33 172.13 109.85 172.13 112.19"/><polygon class="cls-50" points="134.44 125.98 143.88 124.39 143.88 122.69 134.44 124.28 134.44 125.98"/><polygon class="cls-50" points="134.44 146.29 144.57 144.58 144.57 143.61 134.44 145.32 134.44 146.29"/><polygon class="cls-32" points="134.44 149.11 143.08 147.65 143.08 146.69 134.44 148.14 134.44 149.11"/><polygon class="cls-32" points="134.44 151.93 143.08 150.47 143.08 149.51 134.44 150.96 134.44 151.93"/><polygon class="cls-50" points="147.85 144.03 157.99 142.32 157.99 141.35 147.85 143.06 147.85 144.03"/><polygon class="cls-32" points="147.85 146.85 156.5 145.39 156.5 144.43 147.85 145.88 147.85 146.85"/><polygon class="cls-32" points="147.85 149.67 156.5 148.21 156.5 147.25 147.85 148.7 147.85 149.67"/><polygon class="cls-50" points="161.49 141.73 171.62 140.02 171.62 139.06 161.49 140.76 161.49 141.73"/><polygon class="cls-32" points="161.49 144.55 170.13 143.09 170.13 142.13 161.49 143.59 161.49 144.55"/><polygon class="cls-32" points="161.49 147.37 170.13 145.92 170.13 144.95 161.49 146.41 161.49 147.37"/><polygon class="cls-81" points="166.37 120.6 172.36 119.59 172.36 117.89 166.37 118.9 166.37 120.6"/><polygon class="cls-81" points="158.79 121.88 164.79 120.86 164.79 119.17 158.79 120.17 158.79 121.88"/><polygon class="cls-81" points="151.22 123.15 157.22 122.14 157.22 120.44 151.22 121.45 151.22 123.15"/><polygon class="cls-59" points="134.44 141.81 144.91 140.05 144.91 127.15 134.44 128.91 134.44 141.81"/><polygon class="cls-59" points="148.07 139.51 158.54 137.75 158.54 124.85 148.07 126.62 148.07 139.51"/><polygon class="cls-59" points="161.71 137.22 172.17 135.45 172.17 122.56 161.71 124.32 161.71 137.22"/><path class="cls-26" d="M212.14,341.31a1.61,1.61,0,0,1-1.82-1.77V306a2.42,2.42,0,0,1,1.82-2.39l26-4.38A1.62,1.62,0,0,1,240,301v33.56a2.4,2.4,0,0,1-1.83,2.38Z" transform="translate(-40.58 -187.28)"/><path class="cls-52" d="M237.93,299l-25.56,4.3a2.73,2.73,0,0,0-2.05,2.69v4.42l29.67-5V301A1.82,1.82,0,0,0,237.93,299Z" transform="translate(-40.58 -187.28)"/><path class="cls-53" d="M214.29,306.42a1.52,1.52,0,0,1-1.14,1.5,1,1,0,0,1-1.15-1.11,1.52,1.52,0,0,1,1.15-1.5A1,1,0,0,1,214.29,306.42Z" transform="translate(-40.58 -187.28)"/><path class="cls-54" d="M217.5,305.88a1.52,1.52,0,0,1-1.14,1.5,1,1,0,0,1-1.15-1.11,1.52,1.52,0,0,1,1.15-1.5A1,1,0,0,1,217.5,305.88Z" transform="translate(-40.58 -187.28)"/><path class="cls-55" d="M220.72,305.34a1.53,1.53,0,0,1-1.15,1.5,1,1,0,0,1-1.15-1.11,1.53,1.53,0,0,1,1.15-1.5A1,1,0,0,1,220.72,305.34Z" transform="translate(-40.58 -187.28)"/><polygon class="cls-82" points="172.27 127.27 181.71 125.67 181.71 124.71 172.27 126.3 172.27 127.27"/><polygon class="cls-50" points="172.27 147.54 182.4 145.84 182.4 144.87 172.27 146.58 172.27 147.54"/><polygon class="cls-32" points="172.27 150.37 180.91 148.91 180.91 147.94 172.27 149.4 172.27 150.37"/><polygon class="cls-50" points="186.24 145.19 196.37 143.48 196.37 142.52 186.24 144.22 186.24 145.19"/><polygon class="cls-32" points="186.24 148.01 194.88 146.56 194.88 145.59 186.24 147.05 186.24 148.01"/><polygon class="cls-56" points="172.52 143.7 182.99 141.94 182.99 129.04 172.52 130.8 172.52 143.7"/><polygon class="cls-60" points="186.15 141.41 196.62 139.64 196.62 126.74 186.15 128.51 186.15 141.41"/><path class="cls-48" d="M262.41,282.7,159.92,300.1l-.07-5.63,0,0,102.47-17.4Z" transform="translate(-40.58 -187.28)"/><polygon class="cls-83" points="219.31 157.59 125.46 173.33 127.52 167.1 217.25 152.06 219.31 157.59"/><path class="cls-84" d="M188.68,348.1a1,1,0,0,1,1.24,1v3.59a1.52,1.52,0,0,1-1.24,1.45l-3.6.6a1,1,0,0,1-1.23-1v-3.59a1.52,1.52,0,0,1,1.23-1.45Z" transform="translate(-40.58 -187.28)"/><path class="cls-85" d="M178.25,349.85a1,1,0,0,1,1.23,1v3.59a1.52,1.52,0,0,1-1.23,1.45l-3.6.6a1,1,0,0,1-1.24-1V351.9a1.53,1.53,0,0,1,1.24-1.45Z" transform="translate(-40.58 -187.28)"/><path class="cls-86" d="M216.39,349.52a1,1,0,0,1-1.24-1v-3.6a1.52,1.52,0,0,1,1.24-1.44l3.59-.6a1,1,0,0,1,1.24,1v3.59a1.53,1.53,0,0,1-1.24,1.45Z" transform="translate(-40.58 -187.28)"/><path class="cls-32" d="M206,351.27a1,1,0,0,1-1.23-1v-3.6A1.52,1.52,0,0,1,206,345.2l3.6-.6a1,1,0,0,1,1.23,1v3.59a1.52,1.52,0,0,1-1.23,1.45Z" transform="translate(-40.58 -187.28)"/><path class="cls-26" d="M195.52,353a1,1,0,0,1-1.24-1v-3.6a1.53,1.53,0,0,1,1.24-1.45l3.59-.6a1,1,0,0,1,1.24,1V351a1.51,1.51,0,0,1-1.24,1.44Z" transform="translate(-40.58 -187.28)"/><path class="cls-13" d="M240.86,339.35a1,1,0,0,1,1.23,1V344a1.53,1.53,0,0,1-1.23,1.45l-3.6.6a1,1,0,0,1-1.24-1V341.4a1.52,1.52,0,0,1,1.24-1.45Z" transform="translate(-40.58 -187.28)"/><path class="cls-87" d="M230.42,341.1a1,1,0,0,1,1.23,1v3.6a1.52,1.52,0,0,1-1.23,1.44l-3.6.6a1,1,0,0,1-1.23-1v-3.59a1.52,1.52,0,0,1,1.23-1.45Z" transform="translate(-40.58 -187.28)"/><path class="cls-26" d="M247.69,344.27a1,1,0,0,1-1.24-1v-3.6a1.5,1.5,0,0,1,1.24-1.44l3.6-.61a1,1,0,0,1,1.23,1v3.6a1.51,1.51,0,0,1-1.23,1.44Z" transform="translate(-40.58 -187.28)"/><path class="cls-88" d="M155.36,376.32s-3.14-2.94-3.14-1.39-.05,1.76.13,2.05l2,3.48a.91.91,0,0,0,.69.47h.06l2.82-.56v-1.93Z" transform="translate(-40.58 -187.28)"/><path class="cls-89" d="M153.24,378.18c-.9.77-3.48,2.89-6.25,3.37l-.77.13" transform="translate(-40.58 -187.28)"/><path class="cls-90" d="M146.22,381.68c-5.33.92-9,1.37-9,1.37" transform="translate(-40.58 -187.28)"/><path class="cls-26" d="M155.36,373.86l-2.88.57c-.25,0-.31.32-.13.62l2,3.47a.89.89,0,0,0,.69.47h.06l2.82-.56Z" transform="translate(-40.58 -187.28)"/><polygon class="cls-91" points="144.04 170.69 195.04 162.03 219.13 90.22 168.13 98.88 144.04 170.69"/><path class="cls-10" d="M219.25,585.64v12.07a2,2,0,0,1-2,2H176.92a2,2,0,0,1-2-2V585.64Z" transform="translate(-40.58 -187.28)"/><path class="cls-92" d="M214.25,585.56a12.14,12.14,0,0,1-1.43,3.24c-3,5-9.62,8.39-17.26,8.39s-14.2-3.43-17.25-8.39a12.14,12.14,0,0,1-1.43-3.24Z" transform="translate(-40.58 -187.28)"/><path class="cls-93" d="M215.41,583.64a12,12,0,0,1-1.4,3.24c-2.8,4.65-8.64,8-15.52,8.35-.47,0-.94,0-1.41,0-7.48,0-13.94-3.43-16.93-8.39a12,12,0,0,1-1.4-3.24Z" transform="translate(-40.58 -187.28)"/><path class="cls-94" d="M215.41,583.64a12,12,0,0,1-1.4,3.24c-2.8,4.65-8.64,8-15.52,8.35V583.64Z" transform="translate(-40.58 -187.28)"/><rect class="cls-95" x="134.34" y="407.03" width="44.33" height="12.07" rx="2" ry="2"/><rect class="cls-21" x="134.34" y="408.7" width="44.33" height="12.07" rx="2" ry="2"/><polyline class="cls-96" points="249.53 216.48 191.35 235.25 239.78 279.09 297.96 260.32 249.53 216.48"/><polyline class="cls-26" points="261.84 209.72 202.2 219.98 246.47 270.38 306.11 260.13 261.84 209.72"/><path class="cls-97" d="M284.51,421.37c-1.09-1-1.82-2-2.77-3.05s-2.47-2-3.52-3.07a1.15,1.15,0,0,0-1.09-.34.5.5,0,0,0,.08-.07c.38-.39-1.18-1.11-1.55-.72-1,1.05-4,.94-6,1.16a44.76,44.76,0,0,0-8.73,1.41.24.24,0,0,0-.14.38c-.43,0-.68.23-.22.62,1.85,1.58,3.19,3.53,5.76,4.83,1,.49,1.38-.22.4-.72-2-1-3.32-2.79-4.76-4.11h.12c2.79-.95,6.44-1.22,9.94-1.52,1.86-.16,3.87-.29,4.93-1.1-.05.11,0,.26.17.45,1.1,1.07,2.61,2.11,3.62,3.19s1.62,1.95,2.67,2.93C284.1,422.28,285.2,422,284.51,421.37Z" transform="translate(-40.58 -187.28)"/><path class="cls-97" d="M281.34,421.23c-5.17-.29-8.74,1-13.22,1.45-.79.08,0,1.1.82,1,4.46-.45,8.07-1.74,13.22-1.45C283.09,422.3,282.26,421.28,281.34,421.23Z" transform="translate(-40.58 -187.28)"/><path class="cls-97" d="M283.49,410.23c-.65,2-3.86,2.91-3.09,5.54.18.61,1.72.88,1.54.27-.69-2.36,2.51-3.23,3.1-5.08C285.2,410.46,283.65,409.73,283.49,410.23Z" transform="translate(-40.58 -187.28)"/><path class="cls-97" d="M289.91,416.35c-2,.49-4.1.88-6.1,1.36-.71.18.44,1.16,1.16,1,2-.49,4.1-.88,6.09-1.36C291.78,417.17,290.62,416.18,289.91,416.35Z" transform="translate(-40.58 -187.28)"/><path class="cls-97" d="M300.39,423c-3.61,0-7.91-.94-12.07-2-1-.26-1,.61,0,.88,4.45,1.16,9,2.2,12.88,2.17C302.08,424,301.27,423,300.39,423Z" transform="translate(-40.58 -187.28)"/><path class="cls-97" d="M292.52,404.94c-3.95.73-5.27.05-8.68,1.37-.61-.42-1.59-.35-1.13.22l.41.51a1.38,1.38,0,0,0,1.39.44,11.54,11.54,0,0,1,4.2-.9c.81-.07-.55.3,0,0s1.16.13,2.1,0,1.87-.51,2.87-.7C294.43,405.78,293.27,404.8,292.52,404.94Z" transform="translate(-40.58 -187.28)"/><path class="cls-97" d="M290.27,408.47a32.22,32.22,0,0,0-4.92.5c-.71.17.44,1.16,1.15,1a29.3,29.3,0,0,1,4.59-.47C291.91,409.44,291.1,408.42,290.27,408.47Z" transform="translate(-40.58 -187.28)"/><path class="cls-97" d="M293.77,408.15a.94.94,0,0,1-.93.12c-1-.31-1,.56,0,.88a2.62,2.62,0,0,0,2.31-.11C295.65,408.7,294.25,407.81,293.77,408.15Z" transform="translate(-40.58 -187.28)"/><path class="cls-97" d="M295.64,412.84a18.15,18.15,0,0,1-3.86.72c-.87,0,0,1,.82,1a19.27,19.27,0,0,0,4.2-.76C297.52,413.66,296.37,412.68,295.64,412.84Z" transform="translate(-40.58 -187.28)"/><path class="cls-97" d="M300.63,412.23a6.15,6.15,0,0,1-2.17.48c-.87,0,0,1,.82,1a7.35,7.35,0,0,0,2.51-.51C302.41,413,301.27,412,300.63,412.23Z" transform="translate(-40.58 -187.28)"/><path class="cls-97" d="M305.17,422.13a8.45,8.45,0,0,0-2.61.38c-.64.23.51,1.22,1.16,1a6.94,6.94,0,0,1,2.27-.35C306.87,423.14,306.05,422.13,305.17,422.13Z" transform="translate(-40.58 -187.28)"/><path class="cls-97" d="M314.42,421.53a46.15,46.15,0,0,0-4.85.37c-1.6.21.61-.17-.88.14-.73.16.42,1.14,1.15,1,1.32-.28-1.11.11.3-.07a45.22,45.22,0,0,1,5.1-.41C316.11,422.54,315.3,421.52,314.42,421.53Z" transform="translate(-40.58 -187.28)"/><path class="cls-97" d="M310.7,427.31a8.28,8.28,0,0,1-3.4.67c-.8.07,0,1.09.82,1,1.45-.14,3.11-.2,4-.81C312.58,427.85,311.18,427,310.7,427.31Z" transform="translate(-40.58 -187.28)"/><path class="cls-98" d="M272,418.08c-1.63.7-4.66.11-6.49.67-.67.2.48,1.19,1.16,1,1.93-.58,5,0,6.73-.77C274,418.7,272.55,417.82,272,418.08Z" transform="translate(-40.58 -187.28)"/><path class="cls-98" d="M276.14,417.54a3.78,3.78,0,0,1-1.1.1c-.89,0-.07,1,.82,1a5.44,5.44,0,0,0,1.44-.13C278,418.35,276.85,417.36,276.14,417.54Z" transform="translate(-40.58 -187.28)"/><path class="cls-98" d="M270.69,419.92c-.15,0-.26.09-.41.12-.73.16.43,1.15,1.15,1,.15,0,.27-.09.42-.13C272.57,420.74,271.42,419.76,270.69,419.92Z" transform="translate(-40.58 -187.28)"/><path class="cls-97" d="M284.56,432.16a6.13,6.13,0,0,0-2.94.3c-1.25.32-2.85.12-3.78.72a.21.21,0,0,0-.07.31c-.53-.07-.8.32-.17.77,1,.72,1.71,1.54,2.64,2.3.76.63,1.87.37,1.1-.26s-1.58-1.47-2.48-2.18a.59.59,0,0,0,.38-.05c.7-.45,1.77-.25,2.73-.44.63-.12,1.2-.29,1.81-.43a2.42,2.42,0,0,1,2.41.85,15.19,15.19,0,0,1,1.66,1.79c.53.65,1.91.66,1.37,0C288.38,434.82,286.57,432.54,284.56,432.16Z" transform="translate(-40.58 -187.28)"/><path class="cls-97" d="M287.26,436.61a24.92,24.92,0,0,1-4.58.46c-.83.06,0,1.08.82,1a27.39,27.39,0,0,0,4.91-.49C289.11,437.41,288,436.42,287.26,436.61Z" transform="translate(-40.58 -187.28)"/><path class="cls-97" d="M289,439.16c-1.28.34-3,.26-4.4.48-.77.12.39,1.11,1.15,1,1.41-.22,3.12-.14,4.41-.48C290.81,440,289.66,439,289,439.16Z" transform="translate(-40.58 -187.28)"/><path class="cls-97" d="M288.43,441a3.4,3.4,0,0,0-1.88.44c-.48.33.92,1.22,1.41.88a2.32,2.32,0,0,1,1.29-.3C290.12,442.05,289.3,441,288.43,441Z" transform="translate(-40.58 -187.28)"/><path class="cls-97" d="M300.25,433.5c-1.61-1.09-2.34-2.36-4.49-2.77a12.1,12.1,0,0,0-3.76.15c-1.55.18-3,.48-4.54.66-.53.06-.18.52.34.79a.47.47,0,0,0,.06.09c1.57,1.49,2.67,3.05,5,4.31.42.22.72.21.86.09a1.06,1.06,0,0,0,.43.05,46.45,46.45,0,0,0,6.68-.85c.69-.19-.46-1.18-1.15-1a47.69,47.69,0,0,1-6.65.84,17.6,17.6,0,0,1-3.78-3.44c1.7-.23,3.32-.54,5.1-.69a3.91,3.91,0,0,1,3.27.8,14.66,14.66,0,0,0,1.85,1.45C300.35,434.59,301.12,434.08,300.25,433.5Z" transform="translate(-40.58 -187.28)"/><path class="cls-97" d="M304,436.58a46.49,46.49,0,0,1-9.71,1.32c-.83.06,0,1.08.82,1a48.94,48.94,0,0,0,10.05-1.35C305.84,437.37,304.69,436.38,304,436.58Z" transform="translate(-40.58 -187.28)"/><path class="cls-97" d="M298.84,439.09a1.33,1.33,0,0,1-.84,0c-1-.24-.59.74.42,1a2.77,2.77,0,0,0,1.57,0C300.62,439.84,299.47,438.86,298.84,439.09Z" transform="translate(-40.58 -187.28)"/><path class="cls-97" d="M306.13,438.35c-1.61.15-2.93.58-4.65.61-.87,0-.05,1,.82,1,1.73,0,3-.46,4.65-.61C307.75,439.3,306.94,438.28,306.13,438.35Z" transform="translate(-40.58 -187.28)"/><path class="cls-97" d="M312.79,433.53a6.27,6.27,0,0,1-1.81,0c-.6,0-1.08.19-1,.63.14.6,1.74,1.13,1.6.53-.06-.27.79-.14,1.14-.13a2.92,2.92,0,0,0,1.45-.18C314.74,434.12,313.34,433.24,312.79,433.53Z" transform="translate(-40.58 -187.28)"/><path class="cls-97" d="M318,435.83a1.41,1.41,0,0,0-1.17-.42,9.47,9.47,0,0,1-1.42.39,4.67,4.67,0,0,0-.71.15h0c-.35-.13-.68-.15-.75.07a.37.37,0,0,0,0,.34,1.2,1.2,0,0,0,.57.5,1.77,1.77,0,0,0,1.47,0l.17,0a11.34,11.34,0,0,0,2.2-.26C318.87,436.55,318.53,436.09,318,435.83Z" transform="translate(-40.58 -187.28)"/><path class="cls-99" d="M352,454.05l-9.54,30L294,483.88l-4.09-10.5c-4-10.66-8.18-46.5,46.32-46.5,10.66,0,8.05,20.5,9.57,23.67S352,454.05,352,454.05Z" transform="translate(-40.58 -187.28)"/><rect class="cls-20" x="266.66" y="79.05" width="4.83" height="8.46"/><rect class="cls-20" x="266.66" y="81.09" width="4.83" height="8.42"/><path class="cls-100" d="M292,264.72a2.77,2.77,0,0,0-2.78,2.77v5.2a2.77,2.77,0,0,0,2.78,2.78h18.11V264.72Z" transform="translate(-40.58 -187.28)"/><path class="cls-101" d="M292,268.22a2.77,2.77,0,0,0-2.78,2.77v5.2A2.77,2.77,0,0,0,292,279h18.11V268.22Z" transform="translate(-40.58 -187.28)"/><path class="cls-102" d="M305.22,270H295.16a1.88,1.88,0,0,0-1.88,1.88v3.53a1.88,1.88,0,0,0,1.88,1.87h10.06a1.88,1.88,0,0,0,1.88-1.87v-3.53A1.88,1.88,0,0,0,305.22,270Z" transform="translate(-40.58 -187.28)"/><path class="cls-103" d="M305.22,271h-4.06a1.88,1.88,0,0,0-1.88,1.88v3.53a1.88,1.88,0,0,0,1.88,1.87h4.06a1.88,1.88,0,0,0,1.88-1.87v-3.53A1.88,1.88,0,0,0,305.22,271Z" transform="translate(-40.58 -187.28)"/><path class="cls-5" d="M843.68,597.22V580.55c0-8,2-24.67-16.66-24.67s-18-14.66-18-22.66v-44" transform="translate(-40.58 -187.28)"/><rect class="cls-20" x="812.17" y="361.28" width="8" height="50"/><rect class="cls-20" x="738.16" y="405.28" width="82" height="46"/><rect class="cls-10" x="738.16" y="401.28" width="82" height="36"/><path class="cls-104" d="M215.41,583.64a12,12,0,0,1-1.4,3.24H180.15a12,12,0,0,1-1.4-3.24Z" transform="translate(-40.58 -187.28)"/><rect class="cls-105" x="768.41" y="442.28" width="4.25" height="4.25"/><rect class="cls-27" x="810.91" y="442.28" width="4.25" height="4.25" rx="2" ry="2"/><rect class="cls-106" x="760.41" y="442.28" width="4.25" height="4.25"/><rect class="cls-105" x="752.41" y="442.28" width="4.25" height="4.25"/><rect class="cls-105" x="744.41" y="442.28" width="4.25" height="4.25"/><ellipse class="cls-10" cx="816.17" cy="361.65" rx="3.99" ry="2.67"/><path class="cls-107" d="M528.57,211c-2.25,0-4.49-.23-6.75-.25a1,1,0,0,0,0,2c2.26,0,4.5.23,6.75.25A1,1,0,0,0,528.57,211Z" transform="translate(-40.58 -187.28)"/><rect class="cls-108" x="475.18" y="14.84" width="22.82" height="17.38"/><polygon class="cls-27" points="117.02 113.84 117.02 131.22 98.2 134.22 98.2 116.84 117.02 113.84"/><path class="cls-107" d="M532.32,206.23c-4.25.44-8.49-.2-12.75-.25a1,1,0,0,0,0,2c4.26.05,8.5.69,12.75.25C533.59,208.1,533.61,206.1,532.32,206.23Z" transform="translate(-40.58 -187.28)"/><rect class="cls-108" x="475.18" y="37.34" width="22.82" height="17.38"/><path class="cls-107" d="M532.32,230.23c-4.25.44-8.49-.2-12.75-.25a1,1,0,0,0,0,2c4.26.05,8.5.69,12.75.25C533.59,232.1,533.61,230.1,532.32,230.23Z" transform="translate(-40.58 -187.28)"/><rect class="cls-108" x="475.18" y="59.84" width="22.82" height="17.38"/><path class="cls-107" d="M532.57,259.82c-2.25,0-8.49-.24-10.75-.25a1,1,0,0,0,0,2c2.26,0,8.5.23,10.75.25A1,1,0,0,0,532.57,259.82Z" transform="translate(-40.58 -187.28)"/><path class="cls-107" d="M530.57,255.82c-2.25,0-6.49-.24-8.75-.25a1,1,0,0,0,0,2c2.26,0,6.5.23,8.75.25A1,1,0,0,0,530.57,255.82Z" transform="translate(-40.58 -187.28)"/><path class="cls-107" d="M531.57,250.82c-2.25,0-7.49-.24-9.75-.25a1,1,0,0,0,0,2c2.26,0,7.5.23,9.75.25A1,1,0,0,0,531.57,250.82Z" transform="translate(-40.58 -187.28)"/><rect class="cls-109" x="481.66" y="14.84" width="16.34" height="17.38"/><rect class="cls-109" x="481.66" y="37.34" width="16.34" height="17.38"/><rect class="cls-109" x="481.66" y="59.84" width="16.34" height="17.38"/><path class="cls-16" d="M616.31,408.88v39a4.49,4.49,0,0,1-4.5,4.49h-47a4.49,4.49,0,0,1-4.49-4.49v-39a4.49,4.49,0,0,1,4.49-4.5h47A4.49,4.49,0,0,1,616.31,408.88Z" transform="translate(-40.58 -187.28)"/><rect class="cls-110" x="568.81" y="403.55" width="48" height="56" rx="4.49" ry="4.49" transform="translate(983.78 -348.53) rotate(90)"/><path class="cls-20" d="M569.3,449.88a2.5,2.5,0,0,1-2.49-2.49v-39a2.5,2.5,0,0,1,2.49-2.5h47a2.5,2.5,0,0,1,2.5,2.5v39a2.5,2.5,0,0,1-2.5,2.49Z" transform="translate(-40.58 -187.28)"/><path class="cls-111" d="M616.31,407.88a.5.5,0,0,1,.5.5v39a.49.49,0,0,1-.5.49h-47a.49.49,0,0,1-.49-.49v-39a.49.49,0,0,1,.49-.5h47m0-4h-47a4.49,4.49,0,0,0-4.49,4.5v39a4.49,4.49,0,0,0,4.49,4.49h47a4.49,4.49,0,0,0,4.5-4.49v-39a4.49,4.49,0,0,0-4.5-4.5Z" transform="translate(-40.58 -187.28)"/><rect class="cls-26" x="533.1" y="228.26" width="2.08" height="1.83"/><rect class="cls-26" x="533.1" y="223.63" width="2.08" height="1.83"/><rect class="cls-26" x="537.23" y="232.89" width="2.08" height="1.83"/><rect class="cls-26" x="537.41" y="237.52" width="2.08" height="1.83"/><rect class="cls-26" x="537.41" y="242.16" width="2.08" height="1.83"/><rect class="cls-26" x="537.41" y="246.79" width="2.08" height="1.83"/><rect class="cls-26" x="533.1" y="251.42" width="2.08" height="1.83"/><rect class="cls-26" x="533.28" y="255.98" width="2.08" height="1.83"/><rect class="cls-63" x="538.12" y="228.26" width="22.65" height="1.83"/><rect class="cls-63" x="538.12" y="223.63" width="24.57" height="1.83"/><rect class="cls-63" x="542.25" y="232.89" width="17.69" height="1.83"/><rect class="cls-63" x="542.43" y="237.52" width="24.57" height="1.83"/><rect class="cls-63" x="542.43" y="242.16" width="25.64" height="1.83"/><rect class="cls-63" x="542.43" y="246.79" width="16.32" height="1.83"/><rect class="cls-63" x="538.12" y="251.42" width="32.83" height="1.83"/><rect class="cls-63" x="538.31" y="255.98" width="20.45" height="1.83"/><path class="cls-112" d="M620.81,408.38v6.83l-13.89,36.67H574.25l18.18-48h23.88A4.49,4.49,0,0,1,620.81,408.38Z" transform="translate(-40.58 -187.28)"/><rect class="cls-10" x="759.66" y="294.78" width="16.04" height="22.44" rx="4.06" ry="4.06"/><rect class="cls-20" x="759.66" y="301.91" width="16.04" height="22.44" rx="4.06" ry="4.06"/><path class="cls-113" d="M413.69,433.25c-12.65,1.65-27.17,8.16-40.85,16.3a246.19,246.19,0,0,0-23.27,15.78c-3.6,2.74-7,5.45-10,8l-.09.07c-.36.31-.72.6-1.07.91-.66.56-1.31,1.13-1.94,1.68l.38,0c-.31.36-6.37,5.93-12.33,11.85s-18.64,14.71-25.18,2.15c-2-3.92-.59-8.17,1.62-12,5.44-9.44,24.83-27.61,48.28-43.07,4-2.65,8.14-5.22,12.34-7.64,16.25-9.42,33.51-16.78,48.91-18.79a12.5,12.5,0,1,1,3.23,24.79Z" transform="translate(-40.58 -187.28)"/><path class="cls-10" d="M776.44,493.21h-8.89a1.5,1.5,0,0,1-1.32-1.62l-1.34-6.52a1.62,1.62,0,0,1,1.62-1.62h11a1.62,1.62,0,0,1,1.62,1.62l-1.34,6.52A1.5,1.5,0,0,1,776.44,493.21Z" transform="translate(-40.58 -187.28)"/><rect class="cls-20" x="725.65" y="301.83" width="11.51" height="4.88" rx="1.62" ry="1.62"/><path class="cls-10" d="M846.33,486.2h-2.5a1.25,1.25,0,0,1-1.25-1.25h0a1.25,1.25,0,0,1,1.25-1.25h2.5a1.25,1.25,0,0,1,1.25,1.25h0A1.25,1.25,0,0,1,846.33,486.2Z" transform="translate(-40.58 -187.28)"/><path class="cls-10" d="M846.33,491.41h-2.5a1.25,1.25,0,0,1-1.25-1.25h0a1.25,1.25,0,0,1,1.25-1.25h2.5a1.25,1.25,0,0,1,1.25,1.25h0A1.25,1.25,0,0,1,846.33,491.41Z" transform="translate(-40.58 -187.28)"/><path class="cls-114" d="M356.73,712.68c0-.63,0-1.27,0-1.94,0-10.32-6.21-16.3-12.65-18.47a11.81,11.81,0,0,0-4.49-.94l-.52,0-.52,0a11.8,11.8,0,0,0-4.48.94c-6.44,2.17-12.65,8.15-12.65,18.47,0,.67,0,1.31,0,1.94a14.77,14.77,0,0,0,0,1.49c.26,12.62,2.5,16,16.93,16h1.39c14.42,0,16.66-3.36,16.92-16C356.73,713.68,356.74,713.18,356.73,712.68Z" transform="translate(-40.58 -187.28)"/><line class="cls-115" x1="357.47" y1="526.35" x2="357.47" y2="604.15"/><line class="cls-116" x1="366.94" y1="561.62" x2="435.41" y2="561.62"/><line class="cls-116" x1="297.01" y1="561.62" x2="365.48" y2="561.62"/><path class="cls-37" d="M549.61,434.51a12.77,12.77,0,0,1-25.54,0c0-2.66,1.91-4.26,3.3-6.3s2.27,6.46,4.58,5.5c.66-.27,1.35-11.49,2.07-11.65a12.44,12.44,0,0,1,2.82-.32A12.77,12.77,0,0,1,549.61,434.51Z" transform="translate(-40.58 -187.28)"/><path class="cls-37" d="M396.41,407.28c-11.8,4.83-24.17,14.85-35.31,26.23a242.84,242.84,0,0,0-18.45,21.2c-2.78,3.57-5.34,7.05-7.64,10.33l-.07.09c-.27.4-2,3.19-1.89,3.15-.21.42-4.64,7.35-8.89,14.6s-14.25,19-23.79,8.53c-3-3.26-2.66-7.75-1.51-12,2.84-10.52,16.94-33.05,35.64-54,3.2-3.59,6.54-7.12,10-10.55,13.29-13.26,26.23-9.73,40.6-15.61,6.39-2.62,15.55-14.63,18.17-8.24A12.5,12.5,0,0,1,396.41,407.28Z" transform="translate(-40.58 -187.28)"/><path class="cls-117" d="M472.12,421.1V564.51A33.55,33.55,0,0,1,438.67,598H385.29a33.55,33.55,0,0,1-33.45-33.45V421.1A33.09,33.09,0,0,1,357,403.37a33.59,33.59,0,0,1,28.32-15.72h53.38a32.31,32.31,0,0,1,3.57.19A33.58,33.58,0,0,1,472.12,421.1Z" transform="translate(-40.58 -187.28)"/><path class="cls-117" d="M364.15,432.82c3.63,27.21,21,35.14,37.86,35.85L358,497l-6.12,13.9v-66.2l-5.66-23.56c0-6.5,1.7-14.72,21.37-28.58C363,398.79,362.22,418.3,364.15,432.82Z" transform="translate(-40.58 -187.28)"/><path class="cls-118" d="M351.84,446.92c3.06,17.63,23.54,22.14,63.61,22.14,25.46,0,52.25-5,56.67-17.56v34.11l-120.28-2.28V444.66l-.41-2.73a29.13,29.13,0,0,0,.41,5Z" transform="translate(-40.58 -187.28)"/><path class="cls-37" d="M547.64,482.71a19.31,19.31,0,0,1-4.13,8.51c-2.74,3.07-5.37,3.46-9.43,3.46-7.91,0-13.46-5-24.17-20.07-3-4.24-6.22-8.78-9.56-13.18-3.17-4.22-6.45-8.32-9.75-12-9.28-10.22-13.41-10.75-13.85-10.77A10.76,10.76,0,0,1,478,417.21c17,1,31.81,20.1,49.42,45,.27.36.53.75.81,1.12-.91-8.54-.22-14.82,0-20.75,0-1,6-4.18,8-4.41l.57,0c5.66-.35,7.74-5.45,8.39.26C545.68,442.18,548.92,477.3,547.64,482.71Z" transform="translate(-40.58 -187.28)"/><path class="cls-113" d="M504.62,432.59c2.25,5.5-.38,37.13-4.88,32.25s-10.12-13.75-10.12-13.75l4.87-13.5Z" transform="translate(-40.58 -187.28)"/><path class="cls-113" d="M547.91,481c0,4.3.05,8.67-1.33,11.5-1.77,3.63-7.67,8-15.34,4.83-9.62-4-31.75-32.62-46.25-51.62,0-4.67,10.5.12,10.5.12s20.42,26.34,26.08,33.07,13,14.1,20.84,10.6C545.75,488,546.85,484.48,547.91,481Z" transform="translate(-40.58 -187.28)"/><path class="cls-113" d="M352.43,444.17c-6.73,6.85-10.25,13.7-15.69,20.71-13-9.66-13.67-21.72-11.5-28.66,5.5-6.34,7.13-7.3,10.57-10.72C339.38,429.36,347.22,438.15,352.43,444.17Z" transform="translate(-40.58 -187.28)"/><path class="cls-36" d="M338,706.35c-9.45,0-17.46-3.91-18.23-13.49-1.8-22.52-7.5-113.94-5.36-129.08,1.83-13,8-19.83,12.8-23.32a26.7,26.7,0,0,1,19.94-4.76,18.31,18.31,0,0,1,3.37,35.07c-.54,12.34,2.38,77,5.75,119.17.8,10.08-6.71,15.55-16.79,16.35C339,706.33,338.47,706.35,338,706.35Z" transform="translate(-40.58 -187.28)"/><path class="cls-114" d="M469.42,712.68c0-.63,0-1.27,0-1.94,0-10.32,6.2-16.3,12.65-18.47a11.76,11.76,0,0,1,4.48-.94l.52,0,.52,0a11.72,11.72,0,0,1,4.48.94c6.45,2.17,12.66,8.15,12.66,18.47,0,.67,0,1.31,0,1.94a14.77,14.77,0,0,1,0,1.49c-.26,12.62-2.5,16-16.93,16h-1.38c-14.43,0-16.67-3.36-16.93-16A14.77,14.77,0,0,1,469.42,712.68Z" transform="translate(-40.58 -187.28)"/><path class="cls-36" d="M488.16,706.35c9.45,0,17.46-3.91,18.23-13.49,1.8-22.52,7.5-113.94,5.36-129.08-1.83-13-8-19.83-12.79-23.32A26.72,26.72,0,0,0,479,535.7a18.31,18.31,0,0,0-3.37,35.07c.55,12.34-2.38,77-5.74,119.17-.81,10.08,6.71,15.55,16.79,16.35Q487.43,706.35,488.16,706.35Z" transform="translate(-40.58 -187.28)"/><path class="cls-114" d="M360.62,637.89v31.56a76.64,76.64,0,0,1-14.34-1.18c-13-2.5-17.56-8.71-17.56-15.91v-38.9a16.82,16.82,0,0,1,3.18-9.87,17.11,17.11,0,0,1,13.92-7.23h0l6.5,18.23,5.54,15.6Z" transform="translate(-40.58 -187.28)"/><path class="cls-119" d="M499.43,613.46v38.89a17.15,17.15,0,0,1-17.1,17.1H345.82s.16-.43.45-1.18c2.16-5.73,11.27-30.39,8-30.39-3.74,0-8.4-1.07-8.4-8.09V596.36H482.33A17.15,17.15,0,0,1,499.43,613.46Z" transform="translate(-40.58 -187.28)"/><path class="cls-114" d="M398.08,633.88c-34.67-1.33-59.29-21.52-61.61-24.35-2-2.53-3.83-4.27-4.57-5.94a17.11,17.11,0,0,1,13.92-7.23h0l11.58,14.77Z" transform="translate(-40.58 -187.28)"/><path class="cls-114" d="M499.43,656.05c0,10-9.19,18.16-20.41,18.16H349.13c-11.22,0-20.4-8.17-20.4-18.16s9.18-18.16,20.4-18.16H479C490.24,637.89,499.43,646.06,499.43,656.05Z" transform="translate(-40.58 -187.28)"/><rect class="cls-120" x="363.09" y="611.17" width="21.06" height="14.04" rx="4.47" ry="4.47"/><rect class="cls-121" x="363.09" y="611.17" width="21.06" height="14.04" rx="4.47" ry="4.47"/><path class="cls-20" d="M428.61,792.36v9.36H399.79v-9.36c0-6.27,5.92-11.37,13.18-11.37h2.47c6.95,0,12.66,4.68,13.13,10.58A6.85,6.85,0,0,1,428.61,792.36Z" transform="translate(-40.58 -187.28)"/><path class="cls-120" d="M487.73,763.21a11.46,11.46,0,0,0,22.92,0" transform="translate(-40.58 -187.28)"/><line class="cls-122" x1="376.3" y1="546.13" x2="444.77" y2="546.13"/><line class="cls-122" x1="306.38" y1="546.13" x2="374.84" y2="546.13"/><path class="cls-20" d="M337.12,754.4a5.54,5.54,0,0,1-3.77-1.49c-2.21-2.08-4.48-8.73-2.4-10.95l4.17-11.89c2.08-2.21,12.78,2.91,15,5a5.51,5.51,0,0,1,.25,7.78l-9.23,9.82A5.47,5.47,0,0,1,337.12,754.4Z" transform="translate(-40.58 -187.28)"/><path class="cls-123" d="M335.12,753.4a5.5,5.5,0,0,1-5.5-5.5c0-.3,0-.68,0-1.13-.17-4.15-.59-13.86,5.83-20.56,4-4.19,9.81-6.32,17.21-6.32h47.17a5.5,5.5,0,1,1,0,11H344.62c-4.28,0-7.4,1-9.27,2.93-3.17,3.31-2.91,9.28-2.78,12.49,0,.63.05,1.17.05,1.59C332.62,750.94,338.16,753.4,335.12,753.4Z" transform="translate(-40.58 -187.28)"/><path class="cls-20" d="M495,754.4a5.45,5.45,0,0,1-4-1.74l-9.23-9.82a5.5,5.5,0,0,1,.25-7.78c2.21-2.08,15.12-3.87,17.2-1.65l-.2,11.72a5.51,5.51,0,0,1-4,9.27Z" transform="translate(-40.58 -187.28)"/><path class="cls-123" d="M497,753.4c-3,0,1.5-2.46,1.5-5.5,0-.42,0-1,0-1.59.13-3.21.39-9.18-2.78-12.49-1.87-1.94-5-2.93-9.27-2.93H432.31a5.5,5.5,0,0,1,0-11h47.17c7.4,0,13.19,2.13,17.21,6.32,6.42,6.7,6,16.41,5.83,20.56,0,.45,0,.83,0,1.13A5.5,5.5,0,0,1,497,753.4Z" transform="translate(-40.58 -187.28)"/><line class="cls-124" x1="373.49" y1="520.73" x2="373.49" y2="585.42"/><line class="cls-125" x1="377.49" y1="509.91" x2="377.49" y2="574.6"/><polygon class="cls-114" points="379.56 450.61 358.85 450.61 292.66 431.28 342.69 409.09 379.56 450.61"/><path class="cls-126" d="M425.08,676.26v44.5a11,11,0,1,1-22,0v-44.5a11.31,11.31,0,0,1,.11-1.55,11,11,0,0,1,21.89,1.55Z" transform="translate(-40.58 -187.28)"/><path class="cls-127" d="M425.08,676.26v28.87c-3.73,3.73-12.41,4.72-12.41,4.72v14.48s-8.55-3-9.59-2.7V676.26a11,11,0,0,1,22,0Z" transform="translate(-40.58 -187.28)"/><path class="cls-20" d="M414.08,724a11,11,0,0,1-11-11l-1,8.79c0,6.07,5.92,11,12,11s12-4.93,12-11l-1-8.79A11,11,0,0,1,414.08,724Z" transform="translate(-40.58 -187.28)"/><path class="cls-20" d="M414.08,679.28a11,11,0,0,1-11-11l-1,8.79c0,6.07,5.92,11,12,11s12-4.93,12-11l-1-8.79A11,11,0,0,1,414.08,679.28Z" transform="translate(-40.58 -187.28)"/><path class="cls-118" d="M454.77,543.68c22,.07,41.27,7.82,42.9,17.22s-5.57,29.56-16,44.8-37,27.72-58.92,27.72h-23.9c-21.95,0-47.56-15.07-56.91-33.5s-15.83-38.71-14.42-45.07S348,543.35,370,543.42Z" transform="translate(-40.58 -187.28)"/><g class="cls-128"><path class="cls-129" d="M442,498.62c21.88-1.85,39.78,14.61,39.78,36.57v23.9A40,40,0,0,1,441.89,599H382.54a40,40,0,0,1-39.92-39.93V546.92c0-22,17.9-41.43,39.78-43.28Z" transform="translate(-40.58 -187.28)"/></g><path class="cls-20" d="M499.43,660.5V671c0,5.75-9.19,10.46-20.41,10.46H349.13c-11.22,0-20.4-4.71-20.4-10.46V660.5" transform="translate(-40.58 -187.28)"/><path class="cls-118" d="M373.33,543.68c-22,.07-38.65,7.82-37.08,17.22s8.77,29.56,16,44.8,31.14,27.72,53.1,27.72h23.9c22,0,47.57-15.07,56.91-33.5S502,561.21,500.6,554.85s-20.53-11.5-42.49-11.43Z" transform="translate(-40.58 -187.28)"/><path class="cls-130" d="M483.18,579.35c-5.36,6.08-16.09,11.52-28.42,15a105.82,105.82,0,0,1-28.49,4.19h-23.9c-22,0-45.86-7.16-53.11-15.92s-14.46-20.32-16-25.72,15.13-9.84,37.09-9.88l79.79-.15h5c22,0,32.55,2.92,34,6.57S492.52,568.77,483.18,579.35Z" transform="translate(-40.58 -187.28)"/><path class="cls-120" d="M321.75,763.21a11.46,11.46,0,0,0,22.92,0" transform="translate(-40.58 -187.28)"/><path class="cls-20" d="M322.42,766.1a2,2,0,0,1-2-2,13.47,13.47,0,0,1,26.94,0,2,2,0,0,1-2,2Z" transform="translate(-40.58 -187.28)"/><path class="cls-20" d="M333.21,750.63a11.46,11.46,0,0,1,11.46,11.46H321.75a11.46,11.46,0,0,1,11.46-11.46m0-4a15.49,15.49,0,0,0-15.47,15.47,4,4,0,0,0,4,4h22.92a4,4,0,0,0,4-4,15.5,15.5,0,0,0-15.48-15.47Z" transform="translate(-40.58 -187.28)"/><path class="cls-20" d="M487.73,764.1a2,2,0,0,1-2-2,13.47,13.47,0,0,1,26.93,0,2,2,0,0,1-2,2Z" transform="translate(-40.58 -187.28)"/><path class="cls-20" d="M499.19,750.63a11.46,11.46,0,0,1,11.46,11.46H487.73a11.46,11.46,0,0,1,11.46-11.46m0-4a15.49,15.49,0,0,0-15.47,15.47,4,4,0,0,0,4,4h22.92a4,4,0,0,0,4-4,15.5,15.5,0,0,0-15.48-15.47Z" transform="translate(-40.58 -187.28)"/><path class="cls-117" d="M483.18,579.35c-5.36,6.08-16.09,11.52-28.42,15-1.18-12.24-3.1-30-4.64-47.48h5c22,0,32.55,2.92,34,6.57S492.52,568.77,483.18,579.35Z" transform="translate(-40.58 -187.28)"/><path class="cls-117" d="M498.74,450.3a23.25,23.25,0,0,1-13.33,5.54c-4.55.49-9.07-1.3-13.29-4.3-6.1-4.32-11.6-11.14-15.73-17.19a120.9,120.9,0,0,1-7.65-12.84s-14.85-34.13-6.5-33.67c12.17.67,35.83,5,62.17,44.5C506.38,435.29,505.49,444.29,498.74,450.3Z" transform="translate(-40.58 -187.28)"/><path class="cls-117" d="M392.91,395.78c-1.77,10-8.63,25.73-8.63,25.73s-1.58,3.83-4.34,9c-5.64,10.58-16.18,26.79-28.1,27.39a13.44,13.44,0,0,1-2.1-.06c-18.67-2-24-21.19-21.13-25.5,11.74-17.6,22.94-28.22,32.84-34.64,12.3-8,22.58-9.49,29.33-9.86C393.45,387.69,393.75,391.09,392.91,395.78Z" transform="translate(-40.58 -187.28)"/><path class="cls-130" d="M498.74,450.3a23.25,23.25,0,0,1-13.33,5.54c-4.55.49-9.07-1.3-13.29-4.3v38.6l-62.71,11.37-57.57-8.28V457.9a13.44,13.44,0,0,1-2.1-.06c-18.67-2-24.15-21.29-21.13-25.5,16.3-22.62,34.47-44.69,56.68-44.69H403c.27,2.39.43,3.86.43,3.86l-7.34,4a18.73,18.73,0,0,0-3.16.27c-9.6,1.57-19.09,9.92-27.5,17.73-6.85,6.35-3.67,12.54,20.08,12.54,5.6,0,11.28-.18,18.75,0,22.41.54,36.76.23,49-.75a30.29,30.29,0,0,0,11.25-2.75,12.57,12.57,0,0,1,10.5,0c4.75,2.25,9,8.95,16.42,17.62A96.67,96.67,0,0,1,498.74,450.3Z" transform="translate(-40.58 -187.28)"/><path class="cls-119" d="M495.23,539.07,334.59,534.6l2.15-24.48,4.41-50c.84-14.75,12.17-27.15,26.31-30a31.11,31.11,0,0,1,6.05-.6h81.12c16.84,0,31.53,13.74,32.66,30.54Z" transform="translate(-40.58 -187.28)"/><path class="cls-114" d="M371.74,468.55l-19.33,29.33s-13,19-14,15.67a19.8,19.8,0,0,0-1.67-3.43l4.41-50c.84-14.75,12.17-27.15,26.31-30a21.1,21.1,0,0,0-2,6.75c-.67,4.67-2.48,12,7.43,12.67S371.74,468.55,371.74,468.55Z" transform="translate(-40.58 -187.28)"/><path class="cls-114" d="M359.34,582.6a27.88,27.88,0,0,1-28.18-30.51l9.31-76.84c1.34-16.78,16.21-30.52,33-30.52h81.11c16.84,0,31.71,13.74,33.05,30.52L497,552.09a27.88,27.88,0,0,1-28.18,30.51Z" transform="translate(-40.58 -187.28)"/><path class="cls-26" d="M434.16,387.65c-1.5,8.05-10.17,13.58-20.6,13.58h-3.07c-10.43,0-19.1-5.53-20.6-13.58Z" transform="translate(-40.58 -187.28)"/><path class="cls-37" d="M429.78,359.15v24.62c0,8.5-7.3,11.53-16.23,11.53H410.5c-1,0-1.9,0-2.82-.11-7.6-.61-13.41-3.84-13.41-11.42V359.15c0-8.49,7.3-15.44,16.23-15.44h3.05C422.48,343.71,429.78,350.66,429.78,359.15Z" transform="translate(-40.58 -187.28)"/><path class="cls-113" d="M429.78,369c0,8.49-7.3,13.68-16.23,13.68H410.5c-8.93,0-16.23-5.19-16.23-13.68V347.6c0-8.49,7.3-15.44,16.23-15.44h3.05c8.93,0,16.23,6.95,16.23,15.44Z" transform="translate(-40.58 -187.28)"/><path class="cls-117" d="M326.27,475.8l-.8,1.15A12.72,12.72,0,0,1,326.27,475.8Z" transform="translate(-40.58 -187.28)"/><path class="cls-113" d="M412.41,382.55c-6,0-4.67,7.83-4.67,12.5l-.06.14c-7.6-.61-13.41-3.84-13.41-11.42V371c1-2.45.3-3.61.3-5.42s20.67,1,21.34,1.83S418.41,382.55,412.41,382.55Z" transform="translate(-40.58 -187.28)"/><path class="cls-37" d="M526.41,439.05c-1-1.67-2,1.76-2.34-4.54s-2.33-10.13-1.16-10.46,4.67-2.5,5.17,4.33a76,76,0,0,1,.33,9.17Z" transform="translate(-40.58 -187.28)"/><path class="cls-131" d="M448.92,313.71l-.07,2.08-.67,18.32a48.34,48.34,0,0,1-3.34,15.59,49.6,49.6,0,0,1-13.13,19.11,29.58,29.58,0,0,1-13.91,7.37l-.95.18-.39.07c-.47.08-.93.14-1.4.19h0c-.48.06-1,.1-1.45.13h-.28l-.93,0H412c-10.11,0-19.15-5.52-24.68-13.9a50.71,50.71,0,0,1-10.84-28.61l-.81-17.7A36.07,36.07,0,0,1,382,294.67a7.51,7.51,0,0,1,.78-1.07c9-9.08,15.11-13.52,31.71-13.49C434.28,281,449.67,293.64,448.92,313.71Z" transform="translate(-40.58 -187.28)"/><path class="cls-132" d="M444.84,349.7a49.6,49.6,0,0,1-13.13,19.11,29.58,29.58,0,0,1-13.91,7.37l-.95.18-.39.07c-.47.08-.93.14-1.4.19h0c-.48.06-1,.1-1.45.13h-.28l-.93,0H412c-10.11,0-19.15-5.52-24.68-13.9a50.71,50.71,0,0,1-10.84-28.61l-.81-17.7A36.07,36.07,0,0,1,382,294.67c.25-.36.51-.72.78-1.07-2.66,4.15-2.66,56.76,30,61C428.33,356.7,438.26,354.25,444.84,349.7Z" transform="translate(-40.58 -187.28)"/><path class="cls-133" d="M709.07,597.51a5.73,5.73,0,0,1,3.7.22l5.73,2.75a3.23,3.23,0,0,1,1.69,2.86l-9.11,83.3a3.56,3.56,0,0,1-1.94,2.8L625.41,725.9a4.46,4.46,0,0,1-3.56-.22L616,722.23a3.87,3.87,0,0,1-1.73-3V631.45a3,3,0,0,1,1.89-2.64Z" transform="translate(-40.58 -187.28)"/><path class="cls-13" d="M718.65,602a1.35,1.35,0,0,1,1.9,1.36v87.77a3,3,0,0,1-1.89,2.66L625.72,726a1.34,1.34,0,0,1-1.89-1.35V635.92a3,3,0,0,1,1.9-2.64Z" transform="translate(-40.58 -187.28)"/><line class="cls-134" x1="596.51" y1="456.41" x2="596.51" y2="490.35"/><path class="cls-135" d="M638.09,671.62l6.08,3.36c1.93,1.06,3.51.13,3.51-2.07V652.16a7.64,7.64,0,0,0-3.48-6l-6.11-3.49" transform="translate(-40.58 -187.28)"/><line class="cls-136" x1="373.49" y1="381.04" x2="373.49" y2="485.96"/><path class="cls-137" d="M365.34,566.6a17.88,17.88,0,0,1-18.23-19.53l7.35-60.65v-.2c.92-11.55,11.49-21.31,23.08-21.31h72.12c11.58,0,22.15,9.76,23.07,21.31l0,.2L481,547.07a17.88,17.88,0,0,1-18.23,19.53H365.34Z" transform="translate(-40.58 -187.28)"/><path class="cls-20" d="M365.34,572.6a17.88,17.88,0,0,1-18.23-19.53l7.35-60.65v-.2c.92-11.55,11.49-21.31,23.08-21.31h72.12c11.58,0,22.15,9.76,23.07,21.31l0,.2L481,553.07a17.88,17.88,0,0,1-18.23,19.53H365.34Z" transform="translate(-40.58 -187.28)"/><path class="cls-16" d="M543.57,400.71l-10.34-19h0l-.21-.2-.3-.28-.3-.3c-5.71-5.42-17.66-8.21-26.15-6.54-7.8,1.54-10.2,6.42-5.78,11.12l.25.26.21.24.17.17h0l13,13.88.5.53,3,3.17c5.09,5.43,15.21,8,20,3.35,7-6.79,9.29-9.31,2.79-15.39l3.18,9Z" transform="translate(-40.58 -187.28)"/><path class="cls-138" d="M547.42,398.08l-.58,5.11a4.79,4.79,0,0,1-2,3.64,16.93,16.93,0,0,1-8.76,3.2,26.33,26.33,0,0,1-3,.17h0a23.23,23.23,0,0,1-8.47-1.49c-3.21-1.28-5.3-3.28-5.3-5.52l-.58-5.11,7-19.39-3.48-7.79,10.87.48,10.51,2.29.15,1,2.4,15.19Z" transform="translate(-40.58 -187.28)"/><path class="cls-139" d="M549.88,370.62l-.14,1.44-2,22-.36,4c-2.51,2.75-8,4.67-14.35,4.67h0c-6.36,0-11.84-1.92-14.35-4.67l-2.45-27.46,16.8.75Z" transform="translate(-40.58 -187.28)"/><path class="cls-140" d="M547.42,372.81l-1.3,17-.76,9.9-.53,7.08a16.93,16.93,0,0,1-8.76,3.2l.37-7.46,1.23-26.42,6.05-1.49Z" transform="translate(-40.58 -187.28)"/><path class="cls-141" d="M524.59,408.7c-3.22-1.27-5.29-3.27-5.29-5.51l-.59-5.11-2.45-27.46,5.93.27c-.07,2.92-.21,5.9-.21,5.9Z" transform="translate(-40.58 -187.28)"/><path class="cls-138" d="M551.46,369.32c0,5.17-8.23,9.37-18.39,9.37s-18.4-4.2-18.4-9.37v-3.1s16-5.51,16.08-5.33,20.7,5,20.7,5h0Z" transform="translate(-40.58 -187.28)"/><path class="cls-142" d="M551.46,366.21c0,5.17-8.23,9.37-18.4,9.37s-18.39-4.2-18.39-9.37a4.79,4.79,0,0,1,.15-1.19c1.14-4.61,8.87-8.18,18.24-8.18C543.23,356.84,551.46,361,551.46,366.21Z" transform="translate(-40.58 -187.28)"/><path class="cls-141" d="M526.15,372.81c-3-.69-8.16-4.3-11.33-7.79,1.14-4.61,8.87-8.18,18.24-8.18.17.64,3,7.76,3,7.76l-8.07,6C527.48,371.72,529.81,373.64,526.15,372.81Z" transform="translate(-40.58 -187.28)"/><path class="cls-138" d="M517.9,361.39v4.55c0,4.27,6.79,7.73,15.17,7.73s15.17-3.46,15.17-7.73v-5.05l-30.11.5" transform="translate(-40.58 -187.28)"/><ellipse class="cls-143" cx="492.48" cy="174.12" rx="15.17" ry="7.72"/><path class="cls-144" d="M524.76,364.6a18.09,18.09,0,0,0,3.24,1" transform="translate(-40.58 -187.28)"/><path class="cls-141" d="M519.19,402.25l.1.94c0,2.24,2.09,4.24,5.3,5.52a23.23,23.23,0,0,0,8.47,1.49h0a26.33,26.33,0,0,0,3-.17,16.93,16.93,0,0,0,8.76-3.2,4.79,4.79,0,0,0,2-3.64l.18-1.66a7.15,7.15,0,0,1-2.19,3.78,17.14,17.14,0,0,1-8.76,3.2,26.33,26.33,0,0,1-3,.17h0a23.22,23.22,0,0,1-8.47-1.5c-2.91-1.15-5-2.95-5.4-4.93l-.07-.62a2.62,2.62,0,0,0,.07.62Z" transform="translate(-40.58 -187.28)"/><polygon class="cls-145" points="664.89 345.06 661.33 344.49 635.4 373.04 630.84 401.73 635.4 402.3 664.89 374.33 664.89 345.06"/><polygon class="cls-146" points="660.28 376.21 658.1 376.65 630.84 401.73 635.4 402.3 660.28 376.21"/><polygon class="cls-147" points="661.33 344.49 630.84 372.47 630.84 401.73 661.33 373.76 661.33 344.49"/><polygon class="cls-10" points="648.52 358.49 644.07 358.32 638.54 367.9 633.97 389.18 638.54 389.75 648.52 380.34 648.52 358.49"/><polygon class="cls-148" points="643.96 357.92 633.97 367.33 633.97 389.18 643.96 379.77 643.96 357.92"/><path class="cls-149" d="M681.51,552.05a1.14,1.14,0,0,0-1.56-.41,19.75,19.75,0,0,0-4,4,1.14,1.14,0,1,0,2,1.15,16,16,0,0,1,3.15-3.17A1.18,1.18,0,0,0,681.51,552.05Z" transform="translate(-40.58 -187.28)"/><path class="cls-149" d="M680,558.08a1.17,1.17,0,0,0-1.62,0l-1.4,1.16a1.15,1.15,0,0,0,0,1.62,1.17,1.17,0,0,0,1.61,0l1.41-1.17A1.16,1.16,0,0,0,680,558.08Z" transform="translate(-40.58 -187.28)"/><path class="cls-150" d="M692.08,547.37a6.9,6.9,0,0,0-3.13-1,6.62,6.62,0,0,0-2.79.88c-1.33.62-.17,2.58,1.16,2a4.29,4.29,0,0,1,1.63-.57,4.47,4.47,0,0,1,2,.71C692.23,550,693.38,548.06,692.08,547.37Z" transform="translate(-40.58 -187.28)"/><path class="cls-150" d="M691.93,552.55a8.06,8.06,0,0,0-5.71-.89c-1.43.3-.83,2.5.61,2.2a5.61,5.61,0,0,1,3.95.66A1.14,1.14,0,0,0,691.93,552.55Z" transform="translate(-40.58 -187.28)"/><path class="cls-150" d="M691.91,558a10.11,10.11,0,0,0-5.67-1.2c-1.45.13-1.47,2.41,0,2.28a7.93,7.93,0,0,1,4.51.89C692.05,560.69,693.2,558.72,691.91,558Z" transform="translate(-40.58 -187.28)"/><path class="cls-150" d="M691.79,563.1a7.47,7.47,0,0,0-5-1.28c-1.45.15-1.47,2.43,0,2.28a5.55,5.55,0,0,1,3.83,1C691.85,565.91,693,563.93,691.79,563.1Z" transform="translate(-40.58 -187.28)"/><polygon class="cls-151" points="661.99 376.68 661.98 381.55 659.15 384.15 636.29 405.13 634.59 404.65 638.43 400.26 660.28 376.2 661.99 376.68"/><polygon class="cls-152" points="660.28 376.21 660.28 381.08 634.59 404.65 634.59 399.78 634.67 399.71 636.53 398 636.78 397.77 638.77 395.95 641.15 393.76 643.07 392 643.9 391.24 645.82 389.47 648.2 387.29 650.07 385.57 650.82 384.89 652.64 383.22 654.23 381.76 656.15 380 656.96 379.26 658.91 377.47 660.28 376.21"/><polygon class="cls-10" points="658.13 347.23 656.24 346.19 652.12 352.89 650.33 364.78 652.12 366.03 658.13 360.37 658.13 347.23"/><polygon class="cls-148" points="656.22 346.09 650.22 351.75 650.22 364.89 656.22 359.23 656.22 346.09"/><polygon class="cls-146" points="664.89 374.33 661.24 369.78 661.24 344.49 664.89 345.06 664.89 374.33"/><path class="cls-151" d="M699.56,567.67a1,1,0,0,1-2,0c0-.38,0-.76,0-1.14l2-1.79a.13.13,0,0,1,0,.06Z" transform="translate(-40.58 -187.28)"/><path class="cls-151" d="M696.85,569.74c.07,1.29-1.93,1.28-2,0,0-.24,0-.47,0-.71l1.92-1.76Z" transform="translate(-40.58 -187.28)"/><path class="cls-151" d="M693.47,572.86a1,1,0,0,1-2,0c0-.23-.05-.47-.07-.7l1.82-1.67C693.3,571.28,693.39,572.07,693.47,572.86Z" transform="translate(-40.58 -187.28)"/><path class="cls-151" d="M690.87,575.61c.13,1.28-1.88,1.27-2,0,0-.35-.07-.7-.09-1.05l1.87-1.72C690.71,573.76,690.78,574.69,690.87,575.61Z" transform="translate(-40.58 -187.28)"/><path class="cls-151" d="M686.53,579.8c.05,1.29-1.95,1.28-2,0,0-.43,0-.86,0-1.29l1.92-1.77C686.45,577.76,686.49,578.78,686.53,579.8Z" transform="translate(-40.58 -187.28)"/><path class="cls-151" d="M683.78,582.05c.06,1.29-1.94,1.28-2,0,0-.34,0-.68,0-1l1.92-1.76C683.69,580.2,683.74,581.12,683.78,582.05Z" transform="translate(-40.58 -187.28)"/><path class="cls-151" d="M679.46,586.22c.18,1.26-1.75,1.8-1.93.53-.08-.57-.14-1.14-.17-1.71l2-1.82A15,15,0,0,0,679.46,586.22Z" transform="translate(-40.58 -187.28)"/><path class="cls-151" d="M675.59,588.82a14.52,14.52,0,0,1-.34-1.84l1.86-1.71a14,14,0,0,0,.4,3C677.82,589.54,675.89,590.07,675.59,588.82Z" transform="translate(-40.58 -187.28)"/></g></g></svg>