<svg xmlns="http://www.w3.org/2000/svg" xmlns:xlink="http://www.w3.org/1999/xlink" viewBox="0 0 599.02 456.11"><defs><style>.cls-1{mask:url(#mask);}.cls-2,.cls-4{mix-blend-mode:multiply;}.cls-2{fill:url(#linear-gradient);}.cls-3{mask:url(#mask-2);}.cls-4{fill:url(#linear-gradient-2);}.cls-5{fill:url(#linear-gradient-3);}.cls-6{opacity:0.08;fill:url(#linear-gradient-4);}.cls-7{fill:url(#linear-gradient-5);}.cls-8{fill:url(#linear-gradient-6);}.cls-19,.cls-21,.cls-25,.cls-9{opacity:0.1;}.cls-9{fill:url(#linear-gradient-7);}.cls-10{fill:url(#linear-gradient-8);}.cls-11{mask:url(#mask-3);}.cls-12,.cls-27{opacity:0.51;}.cls-12{fill:url(#linear-gradient-9);}.cls-13{fill:url(#linear-gradient-10);}.cls-14{fill:url(#linear-gradient-11);}.cls-15{fill:url(#linear-gradient-12);}.cls-16{fill:url(#linear-gradient-13);}.cls-17{fill:url(#linear-gradient-14);}.cls-18{fill:url(#linear-gradient-15);}.cls-19{fill:url(#linear-gradient-16);}.cls-20{fill:url(#linear-gradient-17);}.cls-21{fill:url(#linear-gradient-18);}.cls-22{fill:url(#linear-gradient-19);}.cls-23{fill:url(#linear-gradient-20);}.cls-24{fill:url(#linear-gradient-21);}.cls-25{fill:url(#linear-gradient-22);}.cls-26{mask:url(#mask-4);}.cls-27{fill:url(#linear-gradient-23);}.cls-28{fill:url(#linear-gradient-24);}.cls-29{opacity:0.17;fill:url(#linear-gradient-25);}.cls-30{fill:url(#linear-gradient-26);}.cls-31{fill:url(#linear-gradient-27);}.cls-32{fill:url(#linear-gradient-28);}.cls-33{fill:url(#linear-gradient-29);}.cls-34{fill:url(#linear-gradient-30);}.cls-35{fill:url(#linear-gradient-31);}.cls-36{fill:url(#linear-gradient-32);}.cls-37{fill:#fee12b;}.cls-38{fill:url(#linear-gradient-33);}.cls-39{fill:url(#linear-gradient-34);}.cls-40{fill:url(#linear-gradient-35);}.cls-41{fill:url(#linear-gradient-36);}.cls-42{fill:url(#linear-gradient-37);}.cls-43{fill:url(#linear-gradient-38);}.cls-44{fill:url(#linear-gradient-39);}.cls-45{fill:url(#linear-gradient-40);}.cls-46{fill:url(#linear-gradient-41);}.cls-47{fill:url(#linear-gradient-42);}.cls-48{fill:url(#linear-gradient-43);}.cls-49{fill:url(#linear-gradient-44);}.cls-50{fill:url(#linear-gradient-45);}.cls-51{fill:url(#linear-gradient-46);}.cls-52{fill:url(#linear-gradient-47);}.cls-53{fill:url(#linear-gradient-48);}.cls-54{fill:url(#linear-gradient-49);}.cls-55{fill:url(#linear-gradient-50);}.cls-56{fill:url(#linear-gradient-51);}.cls-57{fill:url(#linear-gradient-52);}.cls-58{fill:url(#linear-gradient-53);}.cls-59{fill:url(#linear-gradient-54);}.cls-60{fill:url(#linear-gradient-55);}.cls-61{fill:url(#linear-gradient-56);}.cls-62{fill:url(#linear-gradient-57);}.cls-63{fill:url(#linear-gradient-58);}.cls-64{fill:url(#linear-gradient-59);}.cls-65{fill:url(#linear-gradient-60);}.cls-66{fill:url(#linear-gradient-61);}.cls-67{fill:url(#linear-gradient-62);}.cls-68{fill:url(#linear-gradient-63);}.cls-69{fill:url(#linear-gradient-64);}.cls-70{fill:url(#linear-gradient-65);}.cls-71{fill:url(#linear-gradient-66);}.cls-72{fill:url(#linear-gradient-67);}.cls-73{fill:url(#linear-gradient-68);}.cls-74{fill:url(#linear-gradient-69);}.cls-75{fill:url(#linear-gradient-70);}.cls-76{filter:url(#luminosity-noclip-4);}.cls-77{filter:url(#luminosity-noclip-3);}.cls-78{filter:url(#luminosity-noclip-2);}.cls-79{filter:url(#luminosity-noclip);}</style><filter id="luminosity-noclip" x="302.9" y="-8315.19" width="160.67" height="32766" filterUnits="userSpaceOnUse" color-interpolation-filters="sRGB"><feFlood flood-color="#fff" result="bg"/><feBlend in="SourceGraphic" in2="bg"/></filter><mask id="mask" x="302.9" y="-8315.19" width="160.67" height="32766" maskUnits="userSpaceOnUse"><g class="cls-79"/></mask><linearGradient id="linear-gradient" x1="-559.07" y1="374.15" x2="-546.15" y2="330.25" gradientTransform="matrix(-1, 0, 0, 1, -172.99, 0)" gradientUnits="userSpaceOnUse"><stop offset="0.1" stop-color="#bababa"/><stop offset="0.34" stop-color="#fff"/></linearGradient><filter id="luminosity-noclip-2" x="100.64" y="-8315.19" width="197.39" height="32766" filterUnits="userSpaceOnUse" color-interpolation-filters="sRGB"><feFlood flood-color="#fff" result="bg"/><feBlend in="SourceGraphic" in2="bg"/></filter><mask id="mask-2" x="100.64" y="-8315.19" width="197.39" height="32766" maskUnits="userSpaceOnUse"><g class="cls-78"/></mask><linearGradient id="linear-gradient-2" x1="-449.49" y1="321.36" x2="-209.9" y2="520.56" xlink:href="#linear-gradient"/><linearGradient id="linear-gradient-3" x1="-528.11" y1="289.19" x2="-655.61" y2="101.76" gradientTransform="matrix(-1, 0, 0, 1, -172.99, 0)" gradientUnits="userSpaceOnUse"><stop offset="0" stop-color="#eea0fe"/><stop offset="1" stop-color="#4c1b6d"/></linearGradient><linearGradient id="linear-gradient-4" x1="-647.84" y1="204.4" x2="-575.67" y2="144.07" gradientTransform="matrix(-1, 0, 0, 1, -172.99, 0)" gradientUnits="userSpaceOnUse"><stop offset="0" stop-color="#eea0fe"/><stop offset="0.12" stop-color="#4c1b6d"/><stop offset="0.23" stop-color="#eea0fe"/><stop offset="0.34" stop-color="#4c1b6d"/><stop offset="0.43" stop-color="#eea0fe"/><stop offset="0.5" stop-color="#4c1b6d"/><stop offset="0.63" stop-color="#eea0fe"/><stop offset="0.74" stop-color="#4c1b6d"/><stop offset="0.86" stop-color="#eea0fe"/></linearGradient><linearGradient id="linear-gradient-5" x1="-327.19" y1="224.29" x2="-308.21" y2="288.12" gradientTransform="matrix(-1, 0, 0, 1, -172.99, 0)" gradientUnits="userSpaceOnUse"><stop offset="0.13" stop-color="#231f20"/><stop offset="0.13" stop-color="#2d1e32"/><stop offset="0.14" stop-color="#381d48"/><stop offset="0.15" stop-color="#411c59"/><stop offset="0.16" stop-color="#471b64"/><stop offset="0.17" stop-color="#4b1b6b"/><stop offset="0.2" stop-color="#4c1b6d"/><stop offset="1" stop-color="#eea0fe"/></linearGradient><linearGradient id="linear-gradient-6" x1="-523.73" y1="340.73" x2="-632.71" y2="433.65" gradientTransform="matrix(-1, 0, 0, 1, -172.99, 0)" gradientUnits="userSpaceOnUse"><stop offset="0" stop-color="#fee12b"/><stop offset="0.53" stop-color="#eea0fe"/><stop offset="1" stop-color="#4c1b6d"/></linearGradient><linearGradient id="linear-gradient-7" x1="-537.84" y1="407.39" x2="-587.68" y2="325.18" gradientTransform="matrix(-1, 0, 0, 1, -172.99, 0)" gradientUnits="userSpaceOnUse"><stop offset="0" stop-color="#eea0fe"/><stop offset="0.12" stop-color="#4c1b6d"/><stop offset="0.23" stop-color="#eea0fe"/><stop offset="0.34" stop-color="#4c1b6d"/><stop offset="0.43" stop-color="#eea0fe"/><stop offset="0.5" stop-color="#4c1b6d"/><stop offset="0.63" stop-color="#eea0fe"/><stop offset="0.8" stop-color="#4c1b6d"/><stop offset="0.8" stop-color="#532173"/><stop offset="0.8" stop-color="#773e94"/><stop offset="0.8" stop-color="#9759b1"/><stop offset="0.81" stop-color="#b36fc9"/><stop offset="0.81" stop-color="#c981dd"/><stop offset="0.82" stop-color="#da8fec"/><stop offset="0.82" stop-color="#e599f6"/><stop offset="0.83" stop-color="#ec9efc"/><stop offset="0.86" stop-color="#eea0fe"/></linearGradient><linearGradient id="linear-gradient-8" x1="-458.56" y1="271.56" x2="-594.78" y2="419.63" xlink:href="#linear-gradient-3"/><filter id="luminosity-noclip-3" x="302.9" y="315.29" width="160.67" height="97.04" filterUnits="userSpaceOnUse" color-interpolation-filters="sRGB"><feFlood flood-color="#fff" result="bg"/><feBlend in="SourceGraphic" in2="bg"/></filter><mask id="mask-3" x="286.36" y="302.03" width="160.67" height="97.04" maskUnits="userSpaceOnUse"><g class="cls-77"><g transform="translate(-16.53 -13.25)"><g class="cls-1"><path class="cls-2" d="M463.51,367.48c-.6,9.07-63.17,7-52.84,13.9,3.18,2.12,12.62,22.45,5.74,30.95,0,0-45.74-.79-65.29-4.31-29.54-5.32-57.62-20.79-45.21-74.93,0,0,5.81,2,23.25-2.61s5.3-15.19,5.3-15.19,56.93-.41,95,16.18C429.48,331.47,465.13,343.2,463.51,367.48Z"/></g></g></g></mask><linearGradient id="linear-gradient-9" x1="-559.07" y1="374.15" x2="-546.15" y2="330.25" gradientTransform="matrix(-1, 0, 0, 1, -172.99, 0)" gradientUnits="userSpaceOnUse"><stop offset="0.1"/><stop offset="0.34" stop-color="#4c1b6d"/></linearGradient><linearGradient id="linear-gradient-10" x1="-473.23" y1="209.77" x2="-393.76" y2="103.81" xlink:href="#linear-gradient-3"/><linearGradient id="linear-gradient-11" x1="-361.9" y1="272.52" x2="-183.07" y2="291.64" xlink:href="#linear-gradient-3"/><linearGradient id="linear-gradient-12" x1="-586.15" y1="287.92" x2="-786.15" y2="179.32" gradientTransform="matrix(-1, 0, 0, 1, -172.99, 0)" gradientUnits="userSpaceOnUse"><stop offset="0" stop-color="#4c1b6d"/><stop offset="0.01" stop-color="#4e1d6f"/><stop offset="0.2" stop-color="#66368d"/><stop offset="0.37" stop-color="#76459f"/><stop offset="0.48" stop-color="#7b4ba6"/><stop offset="0.67" stop-color="#66358c"/><stop offset="0.87" stop-color="#532275"/><stop offset="1" stop-color="#4c1b6d"/></linearGradient><linearGradient id="linear-gradient-13" x1="-485.09" y1="339.4" x2="-715.8" y2="210.7" gradientTransform="matrix(-1, 0, 0, 1, -172.99, 0)" gradientUnits="userSpaceOnUse"><stop offset="0.15" stop-color="#fee12b"/><stop offset="0.44" stop-color="#eea0fe"/><stop offset="0.81" stop-color="#7e449a"/><stop offset="1" stop-color="#4c1b6d"/></linearGradient><linearGradient id="linear-gradient-14" x1="-358.46" y1="188.36" x2="-402.64" y2="127.78" xlink:href="#linear-gradient-3"/><linearGradient id="linear-gradient-15" x1="-526.83" y1="235.44" x2="-479.73" y2="94.13" xlink:href="#linear-gradient-3"/><linearGradient id="linear-gradient-16" x1="-526.3" y1="126.21" x2="-464.76" y2="126.21" xlink:href="#linear-gradient-7"/><linearGradient id="linear-gradient-17" x1="-468.9" y1="304.34" x2="-169.52" y2="553.25" gradientTransform="matrix(-1, 0, 0, 1, -172.99, 0)" gradientUnits="userSpaceOnUse"><stop offset="0" stop-color="#fee12b"/><stop offset="0.13" stop-color="#fee02d"/><stop offset="0.19" stop-color="#fdde34"/><stop offset="0.23" stop-color="#fcda41"/><stop offset="0.26" stop-color="#fbd552"/><stop offset="0.29" stop-color="#f9ce6a"/><stop offset="0.32" stop-color="#f7c586"/><stop offset="0.34" stop-color="#f5baa8"/><stop offset="0.37" stop-color="#f2afcf"/><stop offset="0.39" stop-color="#eea1fa"/><stop offset="0.39" stop-color="#eea0fe"/><stop offset="1" stop-color="#4c1b6d"/></linearGradient><linearGradient id="linear-gradient-18" x1="-362.95" y1="417.82" x2="-331.63" y2="363.91" xlink:href="#linear-gradient-7"/><linearGradient id="linear-gradient-19" x1="-342.89" y1="336.63" x2="-359.04" y2="452.02" xlink:href="#linear-gradient-3"/><linearGradient id="linear-gradient-20" x1="-596.4" y1="310.88" x2="-655.11" y2="135.77" gradientTransform="matrix(-1, 0, 0, 1, -172.99, 0)" gradientUnits="userSpaceOnUse"><stop offset="0" stop-color="#fee12b"/><stop offset="0.01" stop-color="#fddb3d"/><stop offset="0.04" stop-color="#f9ce6a"/><stop offset="0.08" stop-color="#f6c192"/><stop offset="0.11" stop-color="#f4b7b3"/><stop offset="0.15" stop-color="#f2afcf"/><stop offset="0.2" stop-color="#f0a8e4"/><stop offset="0.24" stop-color="#efa4f3"/><stop offset="0.3" stop-color="#eea1fb"/><stop offset="0.38" stop-color="#eea0fe"/><stop offset="1" stop-color="#4c1b6d"/></linearGradient><linearGradient id="linear-gradient-21" x1="-517.57" y1="258.16" x2="-562.36" y2="73.69" xlink:href="#linear-gradient-3"/><linearGradient id="linear-gradient-22" x1="-562.83" y1="136.57" x2="-509.51" y2="121.17" gradientTransform="matrix(-1, 0, 0, 1, -172.99, 0)" gradientUnits="userSpaceOnUse"><stop offset="0" stop-color="#eea0fe"/><stop offset="0.12" stop-color="#4c1b6d"/><stop offset="0.23" stop-color="#eea0fe"/><stop offset="0.34" stop-color="#4c1b6d"/><stop offset="0.43" stop-color="#eea0fe"/><stop offset="0.63" stop-color="#eea0fe"/><stop offset="0.74" stop-color="#4c1b6d"/><stop offset="0.86" stop-color="#eea0fe"/></linearGradient><filter id="luminosity-noclip-4" x="100.64" y="325.86" width="197.39" height="111.55" filterUnits="userSpaceOnUse" color-interpolation-filters="sRGB"><feFlood flood-color="#fff" result="bg"/><feBlend in="SourceGraphic" in2="bg"/></filter><mask id="mask-4" x="84.1" y="312.61" width="197.39" height="111.55" maskUnits="userSpaceOnUse"><g class="cls-76"><g transform="translate(-16.53 -13.25)"><g class="cls-3"><path class="cls-4" d="M298,332.24s-10.61,39.56-61.55,71.35,31.94-29.8,4.34-19.91S272.24,394.23,137,433.6c-51.65,15-34.08-19.08-31.2-21.49,54.72-45.91,27.08-16.66,39.81-30.09s44.86-31.06,63.6-39.89,33.25-19.78,70-15.18C279.28,327,282.82,334.72,298,332.24Z"/></g></g></g></mask><linearGradient id="linear-gradient-23" x1="-449.49" y1="321.36" x2="-209.9" y2="520.56" xlink:href="#linear-gradient-9"/><linearGradient id="linear-gradient-24" x1="-436.45" y1="198.6" x2="-263.34" y2="198.6" xlink:href="#linear-gradient-3"/><linearGradient id="linear-gradient-25" x1="-373.09" y1="161.66" x2="-323.8" y2="215.65" gradientTransform="matrix(-1, 0, 0, 1, -172.99, 0)" gradientUnits="userSpaceOnUse"><stop offset="0.12" stop-color="#4c1b6d"/><stop offset="0.34" stop-color="#4c1b6d"/><stop offset="0.43" stop-color="#eea0fe"/><stop offset="0.5" stop-color="#4c1b6d"/><stop offset="0.63" stop-color="#eea0fe"/><stop offset="0.86" stop-color="#eea0fe"/></linearGradient><linearGradient id="linear-gradient-26" x1="-441.03" y1="236.29" x2="-223.98" y2="236.29" xlink:href="#linear-gradient-3"/><linearGradient id="linear-gradient-27" x1="-541.39" y1="318.22" x2="-578.08" y2="215.24" xlink:href="#linear-gradient-3"/><linearGradient id="linear-gradient-28" x1="-316.53" y1="279.6" x2="-338.29" y2="190.27" xlink:href="#linear-gradient-3"/><linearGradient id="linear-gradient-29" x1="-443.11" y1="277.33" x2="-250.69" y2="277.33" xlink:href="#linear-gradient-3"/><linearGradient id="linear-gradient-30" x1="-544.16" y1="309.51" x2="-639.81" y2="256.16" xlink:href="#linear-gradient-13"/><linearGradient id="linear-gradient-31" x1="-485.5" y1="311.73" x2="-422.55" y2="392.67" xlink:href="#linear-gradient-13"/><linearGradient id="linear-gradient-32" x1="-480.35" y1="318.35" x2="-423.17" y2="391.87" gradientTransform="matrix(-1, 0, 0, 1, -172.99, 0)" gradientUnits="userSpaceOnUse"><stop offset="0" stop-color="#eea0fe"/><stop offset="0.65" stop-color="#854aa0"/><stop offset="1" stop-color="#532173"/></linearGradient><linearGradient id="linear-gradient-33" x1="-517.59" y1="108.14" x2="-529.23" y2="240.56" gradientTransform="matrix(-1, 0, 0, 1, -172.99, 0)" gradientUnits="userSpaceOnUse"><stop offset="0" stop-color="#eea0fe"/><stop offset="0.07" stop-color="#7b4ba6"/><stop offset="0.13" stop-color="#4c1b6d"/><stop offset="0.48" stop-color="#84164a"/><stop offset="0.74" stop-color="#e08f5e"/><stop offset="1" stop-color="#f7e371"/></linearGradient><linearGradient id="linear-gradient-34" x1="-501.13" y1="85.14" x2="-513.56" y2="226.59" xlink:href="#linear-gradient-33"/><linearGradient id="linear-gradient-35" x1="-472.53" y1="122.77" x2="-477.96" y2="240.25" gradientTransform="matrix(-1, 0, 0, 1, -172.99, 0)" gradientUnits="userSpaceOnUse"><stop offset="0" stop-color="#eea0fe"/><stop offset="0.05" stop-color="#7b4ba6"/><stop offset="0.13" stop-color="#4c1b6d"/><stop offset="0.23" stop-color="#84164a"/><stop offset="0.51" stop-color="#e08f5e"/><stop offset="1" stop-color="#f7e371"/></linearGradient><linearGradient id="linear-gradient-36" x1="-422.98" y1="101.46" x2="-434.44" y2="242.78" gradientTransform="matrix(-1, 0, 0, 1, -172.99, 0)" gradientUnits="userSpaceOnUse"><stop offset="0.01" stop-color="#eea0fe"/><stop offset="0.1" stop-color="#4c1b6d"/><stop offset="0.27" stop-color="#62195f"/><stop offset="0.48" stop-color="#84164a"/><stop offset="0.59" stop-color="#e08f5e"/><stop offset="1" stop-color="#f7e371"/></linearGradient><linearGradient id="linear-gradient-37" x1="-446.1" y1="126.48" x2="-455.79" y2="236.76" gradientTransform="matrix(-1, 0, 0, 1, -172.99, 0)" gradientUnits="userSpaceOnUse"><stop offset="0" stop-color="#eea0fe"/><stop offset="0.07" stop-color="#7b4ba6"/><stop offset="0.13" stop-color="#4c1b6d"/><stop offset="0.24" stop-color="#84164a"/><stop offset="0.55" stop-color="#e08f5e"/><stop offset="1" stop-color="#f7e371"/></linearGradient><linearGradient id="linear-gradient-38" x1="-414.67" y1="127.64" x2="-426.84" y2="266.02" gradientTransform="matrix(-1, 0, 0, 1, -172.99, 0)" gradientUnits="userSpaceOnUse"><stop offset="0" stop-color="#eea0fe"/><stop offset="0.07" stop-color="#7b4ba6"/><stop offset="0.13" stop-color="#4c1b6d"/><stop offset="0.31" stop-color="#84164a"/><stop offset="0.52" stop-color="#e08f5e"/><stop offset="0.55" stop-color="#e39960"/><stop offset="0.67" stop-color="#ecb968"/><stop offset="0.79" stop-color="#f2d06d"/><stop offset="0.9" stop-color="#f6de70"/><stop offset="1" stop-color="#f7e371"/></linearGradient><linearGradient id="linear-gradient-39" x1="-363.96" y1="151.66" x2="-441.42" y2="281.43" gradientTransform="matrix(-1, 0, 0, 1, -172.99, 0)" gradientUnits="userSpaceOnUse"><stop offset="0" stop-color="#eea0fe"/><stop offset="0.07" stop-color="#7b4ba6"/><stop offset="0.13" stop-color="#4c1b6d"/><stop offset="0.27" stop-color="#84164a"/><stop offset="0.45" stop-color="#e08f5e"/><stop offset="0.83" stop-color="#f7e371"/></linearGradient><linearGradient id="linear-gradient-40" x1="-377.92" y1="163.28" x2="-389.47" y2="294.67" gradientTransform="matrix(-1, 0, 0, 1, -172.99, 0)" gradientUnits="userSpaceOnUse"><stop offset="0" stop-color="#eea0fe"/><stop offset="0.07" stop-color="#7b4ba6"/><stop offset="0.13" stop-color="#4c1b6d"/><stop offset="0.4" stop-color="#84164a"/><stop offset="0.6" stop-color="#d5815c"/><stop offset="0.74" stop-color="#f7e371"/><stop offset="0.82" stop-color="#f7e371"/></linearGradient><linearGradient id="linear-gradient-41" x1="-331.04" y1="262.9" x2="-436.63" y2="358.46" gradientTransform="matrix(-1, 0.08, 0.08, 1, -183.6, 1.85)" gradientUnits="userSpaceOnUse"><stop offset="0" stop-color="#eea0fe"/><stop offset="0.07" stop-color="#7b4ba6"/><stop offset="0.13" stop-color="#4c1b6d"/><stop offset="0.48" stop-color="#84164a"/><stop offset="0.68" stop-color="#e08f5e"/><stop offset="0.76" stop-color="#e8ae65"/><stop offset="0.86" stop-color="#f0cb6c"/><stop offset="0.94" stop-color="#f5dd70"/><stop offset="1" stop-color="#f7e371"/></linearGradient><linearGradient id="linear-gradient-42" x1="-531.15" y1="255.28" x2="-461.98" y2="374.61" gradientTransform="matrix(-0.95, 0.31, 0.31, 0.95, -185.86, 52.52)" xlink:href="#linear-gradient-41"/><linearGradient id="linear-gradient-43" x1="-614.56" y1="147.5" x2="-538.28" y2="279.1" gradientTransform="matrix(-1, 0, 0, 1, -172.99, 0)" gradientUnits="userSpaceOnUse"><stop offset="0" stop-color="#eea0fe"/><stop offset="0.07" stop-color="#7b4ba6"/><stop offset="0.13" stop-color="#4c1b6d"/><stop offset="0.31" stop-color="#84164a"/><stop offset="0.53" stop-color="#e08f5e"/><stop offset="0.65" stop-color="#e8ae65"/><stop offset="0.79" stop-color="#f0cb6c"/><stop offset="0.91" stop-color="#f5dd70"/><stop offset="1" stop-color="#f7e371"/></linearGradient><linearGradient id="linear-gradient-44" x1="-553.84" y1="202.95" x2="-560.63" y2="274.2" gradientTransform="matrix(-1, 0, 0, 1, -172.99, 0)" xlink:href="#linear-gradient-41"/><linearGradient id="linear-gradient-45" x1="-580.35" y1="103.4" x2="-592.7" y2="233.05" gradientTransform="matrix(-0.98, -0.2, -0.2, 0.98, -151.24, -30.01)" xlink:href="#linear-gradient-41"/><linearGradient id="linear-gradient-46" x1="-534.97" y1="221.09" x2="-540.37" y2="282.58" gradientTransform="matrix(-1, 0, 0, 1, -172.99, 0)" gradientUnits="userSpaceOnUse"><stop offset="0" stop-color="#eea0fe"/><stop offset="0.07" stop-color="#7b4ba6"/><stop offset="0.32" stop-color="#84164a"/><stop offset="0.74" stop-color="#e08f5e"/><stop offset="1" stop-color="#f7e371"/></linearGradient><linearGradient id="linear-gradient-47" x1="-505.23" y1="230.55" x2="-513.23" y2="321.56" gradientTransform="matrix(-1, 0, 0, 1, -172.99, 0)" gradientUnits="userSpaceOnUse"><stop offset="0" stop-color="#eea0fe"/><stop offset="0.07" stop-color="#7b4ba6"/><stop offset="0.29" stop-color="#84164a"/><stop offset="0.74" stop-color="#e08f5e"/><stop offset="1" stop-color="#f7e371"/></linearGradient><linearGradient id="linear-gradient-48" x1="-445.68" y1="215.54" x2="-487.14" y2="335.09" gradientTransform="matrix(-1, 0, 0, 1, -172.99, 0)" gradientUnits="userSpaceOnUse"><stop offset="0" stop-color="#eea0fe"/><stop offset="0.07" stop-color="#7b4ba6"/><stop offset="0.2" stop-color="#84164a"/><stop offset="0.52" stop-color="#e08f5e"/><stop offset="0.79" stop-color="#f7e371"/></linearGradient><linearGradient id="linear-gradient-49" x1="-425.21" y1="227.66" x2="-458.91" y2="326.51" gradientTransform="matrix(-1, 0, 0, 1, -172.99, 0)" gradientUnits="userSpaceOnUse"><stop offset="0.01" stop-color="#eea0fe"/><stop offset="0.15" stop-color="#7b4ba6"/><stop offset="0.42" stop-color="#84164a"/><stop offset="0.67" stop-color="#e08f5e"/><stop offset="1" stop-color="#f7e371"/></linearGradient><linearGradient id="linear-gradient-50" x1="-454.28" y1="162.11" x2="-464.47" y2="192.27" gradientTransform="matrix(-1, 0, 0, 1, -172.99, 0)" gradientUnits="userSpaceOnUse"><stop offset="0.06" stop-color="#eea0fe"/><stop offset="0.09" stop-color="#eea0fe"/><stop offset="0.19" stop-color="#c66cd3"/><stop offset="0.3" stop-color="#a03aaa"/><stop offset="0.92" stop-color="#84164a"/></linearGradient><linearGradient id="linear-gradient-51" x1="-451.68" y1="191.06" x2="-499.97" y2="334.07" gradientTransform="matrix(-1, 0, 0, 1, -172.99, 0)" gradientUnits="userSpaceOnUse"><stop offset="0.01" stop-color="#eea0fe"/><stop offset="0.08" stop-color="#a03aaa"/><stop offset="0.21" stop-color="#922778"/><stop offset="0.34" stop-color="#84164a"/><stop offset="0.38" stop-color="#881b4b"/><stop offset="0.42" stop-color="#93294d"/><stop offset="0.46" stop-color="#a44151"/><stop offset="0.5" stop-color="#bd6156"/><stop offset="0.54" stop-color="#dd8b5d"/><stop offset="0.55" stop-color="#e08f5e"/><stop offset="0.56" stop-color="#e29860"/><stop offset="0.65" stop-color="#edbd68"/><stop offset="0.74" stop-color="#f5da6f"/><stop offset="0.83" stop-color="#faee73"/><stop offset="0.92" stop-color="#fefb76"/><stop offset="1" stop-color="#ff7"/></linearGradient><linearGradient id="linear-gradient-52" x1="-460.23" y1="157.41" x2="-470.89" y2="189" xlink:href="#linear-gradient-50"/><linearGradient id="linear-gradient-53" x1="-443.83" y1="165.64" x2="-450.99" y2="186.84" xlink:href="#linear-gradient-50"/><linearGradient id="linear-gradient-54" x1="-416.86" y1="182.67" x2="-464.73" y2="324.45" gradientTransform="matrix(-1, 0, 0, 1, -172.99, 0)" gradientUnits="userSpaceOnUse"><stop offset="0.01" stop-color="#eea0fe"/><stop offset="0.11" stop-color="#a03aaa"/><stop offset="0.37" stop-color="#84164a"/><stop offset="0.6" stop-color="#e08f5e"/><stop offset="0.8" stop-color="#ff7"/></linearGradient><linearGradient id="linear-gradient-55" x1="-478.05" y1="157.15" x2="-503.65" y2="232.96" gradientTransform="matrix(-1, 0, 0, 1, -172.99, 0)" gradientUnits="userSpaceOnUse"><stop offset="0.01" stop-color="#eea0fe"/><stop offset="0.2" stop-color="#a03aaa"/><stop offset="0.72" stop-color="#84164a"/></linearGradient><linearGradient id="linear-gradient-56" x1="-487.16" y1="173.29" x2="-517.87" y2="264.25" gradientTransform="matrix(-1, 0, 0, 1, -172.99, 0)" gradientUnits="userSpaceOnUse"><stop offset="0.01" stop-color="#eea0fe"/><stop offset="0.15" stop-color="#a03aaa"/><stop offset="0.34" stop-color="#84164a"/><stop offset="0.43" stop-color="#86184a"/><stop offset="0.48" stop-color="#8c204c"/><stop offset="0.52" stop-color="#962e4e"/><stop offset="0.56" stop-color="#a54151"/><stop offset="0.59" stop-color="#b85a55"/><stop offset="0.61" stop-color="#cf785a"/><stop offset="0.63" stop-color="#e08f5e"/><stop offset="0.75" stop-color="#fee12b"/></linearGradient><linearGradient id="linear-gradient-57" x1="-423.26" y1="191.66" x2="-465.4" y2="316.45" gradientTransform="matrix(-1, 0, 0, 1, -172.99, 0)" gradientUnits="userSpaceOnUse"><stop offset="0.01" stop-color="#eea0fe"/><stop offset="0.11" stop-color="#a03aaa"/><stop offset="0.44" stop-color="#84164a"/><stop offset="0.48" stop-color="#881b4b"/><stop offset="0.53" stop-color="#93294d"/><stop offset="0.59" stop-color="#a44151"/><stop offset="0.64" stop-color="#bd6156"/><stop offset="0.7" stop-color="#dd8b5d"/><stop offset="0.71" stop-color="#e08f5e"/><stop offset="0.71" stop-color="#e29860"/><stop offset="0.75" stop-color="#edbd68"/><stop offset="0.78" stop-color="#f5da6f"/><stop offset="0.82" stop-color="#faee73"/><stop offset="0.86" stop-color="#fefb76"/><stop offset="0.89" stop-color="#ff7"/></linearGradient><linearGradient id="linear-gradient-58" x1="-427.8" y1="183.1" x2="-474.57" y2="321.63" gradientTransform="matrix(-1, 0, 0, 1, -172.99, 0)" gradientUnits="userSpaceOnUse"><stop offset="0.01" stop-color="#eea0fe"/><stop offset="0.15" stop-color="#a03aaa"/><stop offset="0.34" stop-color="#84164a"/><stop offset="0.37" stop-color="#881b4b"/><stop offset="0.41" stop-color="#93294d"/><stop offset="0.46" stop-color="#a44151"/><stop offset="0.5" stop-color="#bd6156"/><stop offset="0.55" stop-color="#dd8b5d"/><stop offset="0.55" stop-color="#e08f5e"/><stop offset="0.57" stop-color="#e29860"/><stop offset="0.63" stop-color="#edbd68"/><stop offset="0.7" stop-color="#f5da6f"/><stop offset="0.76" stop-color="#faee73"/><stop offset="0.83" stop-color="#fefb76"/><stop offset="0.89" stop-color="#ff7"/></linearGradient><linearGradient id="linear-gradient-59" x1="-438.64" y1="191.54" x2="-484.08" y2="326.13" gradientTransform="matrix(-1, 0, 0, 1, -172.99, 0)" gradientUnits="userSpaceOnUse"><stop offset="0.01" stop-color="#eea0fe"/><stop offset="0.11" stop-color="#a03aaa"/><stop offset="0.44" stop-color="#84164a"/><stop offset="0.47" stop-color="#881b4b"/><stop offset="0.51" stop-color="#93294d"/><stop offset="0.54" stop-color="#a44151"/><stop offset="0.58" stop-color="#bd6156"/><stop offset="0.62" stop-color="#dd8b5d"/><stop offset="0.63" stop-color="#e08f5e"/><stop offset="0.64" stop-color="#e29860"/><stop offset="0.69" stop-color="#edbd68"/><stop offset="0.74" stop-color="#f5da6f"/><stop offset="0.79" stop-color="#faee73"/><stop offset="0.84" stop-color="#fefb76"/><stop offset="0.89" stop-color="#ff7"/></linearGradient><linearGradient id="linear-gradient-60" x1="-408.27" y1="251.27" x2="-408.27" y2="251.27" xlink:href="#linear-gradient-57"/><linearGradient id="linear-gradient-61" x1="-469.83" y1="188.14" x2="-514.05" y2="319.1" gradientTransform="matrix(-1, 0, 0, 1, -172.99, 0)" gradientUnits="userSpaceOnUse"><stop offset="0.01" stop-color="#eea0fe"/><stop offset="0.08" stop-color="#a03aaa"/><stop offset="0.21" stop-color="#922778"/><stop offset="0.34" stop-color="#84164a"/><stop offset="0.4" stop-color="#881b4b"/><stop offset="0.47" stop-color="#93294d"/><stop offset="0.54" stop-color="#a44151"/><stop offset="0.62" stop-color="#bd6156"/><stop offset="0.7" stop-color="#dd8b5d"/><stop offset="0.71" stop-color="#e08f5e"/><stop offset="0.72" stop-color="#e29860"/><stop offset="0.78" stop-color="#edbd68"/><stop offset="0.83" stop-color="#f5da6f"/><stop offset="0.89" stop-color="#faee73"/><stop offset="0.95" stop-color="#fefb76"/><stop offset="1" stop-color="#ff7"/></linearGradient><linearGradient id="linear-gradient-62" x1="-478.23" y1="187.48" x2="-520.4" y2="312.36" gradientTransform="matrix(-1, 0, 0, 1, -172.99, 0)" gradientUnits="userSpaceOnUse"><stop offset="0.01" stop-color="#eea0fe"/><stop offset="0.11" stop-color="#a03aaa"/><stop offset="0.31" stop-color="#84164a"/><stop offset="0.36" stop-color="#881b4b"/><stop offset="0.41" stop-color="#93294d"/><stop offset="0.47" stop-color="#a44151"/><stop offset="0.53" stop-color="#bd6156"/><stop offset="0.59" stop-color="#dd8b5d"/><stop offset="0.6" stop-color="#e08f5e"/><stop offset="0.61" stop-color="#e29860"/><stop offset="0.66" stop-color="#edbd68"/><stop offset="0.72" stop-color="#f5da6f"/><stop offset="0.78" stop-color="#faee73"/><stop offset="0.84" stop-color="#fefb76"/><stop offset="0.89" stop-color="#ff7"/></linearGradient><linearGradient id="linear-gradient-63" x1="-482.93" y1="177.88" x2="-532.71" y2="325.29" gradientTransform="matrix(-1, 0, 0, 1, -172.99, 0)" gradientUnits="userSpaceOnUse"><stop offset="0.01" stop-color="#eea0fe"/><stop offset="0.11" stop-color="#a03aaa"/><stop offset="0.44" stop-color="#84164a"/><stop offset="0.47" stop-color="#881b4b"/><stop offset="0.5" stop-color="#93294d"/><stop offset="0.54" stop-color="#a44151"/><stop offset="0.57" stop-color="#bd6156"/><stop offset="0.61" stop-color="#dd8b5d"/><stop offset="0.61" stop-color="#e08f5e"/><stop offset="0.62" stop-color="#e29860"/><stop offset="0.68" stop-color="#edbd68"/><stop offset="0.73" stop-color="#f5da6f"/><stop offset="0.79" stop-color="#faee73"/><stop offset="0.84" stop-color="#fefb76"/><stop offset="0.89" stop-color="#ff7"/></linearGradient><linearGradient id="linear-gradient-64" x1="-456.3" y1="189.55" x2="-503.01" y2="327.87" gradientTransform="matrix(-1, 0, 0, 1, -172.99, 0)" gradientUnits="userSpaceOnUse"><stop offset="0.01" stop-color="#eea0fe"/><stop offset="0.11" stop-color="#a03aaa"/><stop offset="0.29" stop-color="#84164a"/><stop offset="0.44" stop-color="#84164a"/><stop offset="0.47" stop-color="#881b4b"/><stop offset="0.5" stop-color="#93294d"/><stop offset="0.53" stop-color="#a54151"/><stop offset="0.57" stop-color="#be6157"/><stop offset="0.59" stop-color="#d27c5b"/><stop offset="0.64" stop-color="#e08f5e"/><stop offset="0.65" stop-color="#e29860"/><stop offset="0.7" stop-color="#edbd68"/><stop offset="0.75" stop-color="#f5da6f"/><stop offset="0.8" stop-color="#faee73"/><stop offset="0.84" stop-color="#fefb76"/><stop offset="0.89" stop-color="#ff7"/></linearGradient><linearGradient id="linear-gradient-65" x1="-535.18" y1="221.07" x2="-540.57" y2="282.42" gradientTransform="matrix(-1, 0, 0, 1, -172.99, 0)" gradientUnits="userSpaceOnUse"><stop offset="0" stop-color="#eea0fe"/><stop offset="0.29" stop-color="#7b4ba6"/><stop offset="0.48" stop-color="#84164a"/><stop offset="0.74" stop-color="#e08f5e"/><stop offset="1" stop-color="#f7e371"/></linearGradient><linearGradient id="linear-gradient-66" x1="-505.23" y1="230.55" x2="-513.23" y2="321.56" gradientTransform="matrix(-1, 0, 0, 1, -172.99, 0)" gradientUnits="userSpaceOnUse"><stop offset="0" stop-color="#eea0fe"/><stop offset="0.17" stop-color="#7b4ba6"/><stop offset="0.48" stop-color="#84164a"/><stop offset="0.74" stop-color="#e08f5e"/><stop offset="1" stop-color="#f7e371"/></linearGradient><linearGradient id="linear-gradient-67" x1="-455.59" y1="251.98" x2="-484.09" y2="334.18" gradientTransform="matrix(-1, 0, 0, 1, -172.99, 0)" gradientUnits="userSpaceOnUse"><stop offset="0" stop-color="#eea0fe"/><stop offset="0.18" stop-color="#7b4ba6"/><stop offset="0.48" stop-color="#84164a"/><stop offset="0.74" stop-color="#e08f5e"/><stop offset="0.94" stop-color="#f7e371"/></linearGradient><linearGradient id="linear-gradient-68" x1="-411.25" y1="228.76" x2="-444.9" y2="327.47" gradientTransform="matrix(-1, 0, 0, 1, -172.99, 0)" gradientUnits="userSpaceOnUse"><stop offset="0.01" stop-color="#eea0fe"/><stop offset="0.15" stop-color="#7b4ba6"/><stop offset="0.48" stop-color="#84164a"/><stop offset="0.59" stop-color="#e08f5e"/><stop offset="1" stop-color="#f7e371"/></linearGradient><linearGradient id="linear-gradient-69" x1="-485.56" y1="349.71" x2="-289.39" y2="254.49" xlink:href="#linear-gradient-3"/><linearGradient id="linear-gradient-70" x1="-478.47" y1="316.35" x2="-583.95" y2="318.36" gradientTransform="matrix(-1, 0, 0, 1, -172.99, 0)" gradientUnits="userSpaceOnUse"><stop offset="0" stop-color="#4c1b6d"/><stop offset="0.01" stop-color="#552275"/><stop offset="0.11" stop-color="#8b4fa5"/><stop offset="0.2" stop-color="#b672cc"/><stop offset="0.28" stop-color="#d58be7"/><stop offset="0.35" stop-color="#e79af8"/><stop offset="0.4" stop-color="#eea0fe"/><stop offset="1" stop-color="#4c1b6d"/></linearGradient></defs><title>elegant</title><g id="Layer_9" data-name="Layer 9"><g id="Main_Flower" data-name="Main Flower"><path class="cls-5" d="M499.72,100.41c-8.8,26.36-50.61,131.39-122.59,184.17,0,0,0-24.71-13.49-39.31,0,0,42.73-95.45,75.35-129.14s43.86-44.92,52.86-48.29,4.5-7.86,9-3.36S506.47,80.2,499.72,100.41Z" transform="translate(-16.53 -13.25)"/><path class="cls-6" d="M499.72,100.41c-8.8,26.36-50.61,131.39-122.59,184.17,0,0,0-24.71-13.49-39.31,0,0,42.73-95.45,75.35-129.14s43.86-44.92,52.86-48.29,4.5-7.86,9-3.36S506.47,80.2,499.72,100.41Z" transform="translate(-16.53 -13.25)"/><path class="cls-7" d="M87.53,210.2s-39.89-6.74-44.94,1.68-1.12,7.85,22.47,31.41S155,302.75,243.15,315.1c0,0-38.2-15.71-32.59-26.93C210.56,288.17,147.65,220.85,87.53,210.2Z" transform="translate(-16.53 -13.25)"/><path class="cls-8" d="M463.51,367.48c-.6,9.07,6.49,14.16,8.51,17.39s7.29,7.69.41,16.19-42.54,22.25-90.76,15.37-91.16-16.18-75.76-83.34c0,0,5.81,2,23.25-2.61s5.3-15.19,5.3-15.19,56.93-.41,95,16.18C429.48,331.47,465.13,343.2,463.51,367.48Z" transform="translate(-16.53 -13.25)"/><path class="cls-9" d="M463.51,367.48c-.6,9.07,6.49,14.16,8.51,17.39s7.29,7.69.41,16.19-42.54,22.25-90.76,15.37-91.16-16.18-75.76-83.34c0,0,5.81,2,23.25-2.61s5.3-15.19,5.3-15.19,56.93-.41,95,16.18C429.48,331.47,465.13,343.2,463.51,367.48Z" transform="translate(-16.53 -13.25)"/><path class="cls-10" d="M472,384.87c2,3.24,7.29,7.69.41,16.19s-42.54,22.25-90.76,15.37-91.16-16.18-75.76-83.34c0,0,.23,60.29,55.81,69.54C475.49,421.56,471.07,383.36,472,384.87Z" transform="translate(-16.53 -13.25)"/><g class="cls-11"><path class="cls-12" d="M463.51,367.48c-.6,9.07-63.17,7-52.84,13.9,3.18,2.12,12.62,22.45,5.74,30.95,0,0-45.74-.79-65.29-4.31-29.54-5.32-57.62-20.79-45.21-74.93,0,0,5.81,2,23.25-2.61s5.3-15.19,5.3-15.19,56.93-.41,95,16.18C429.48,331.47,465.13,343.2,463.51,367.48Z" transform="translate(-16.53 -13.25)"/></g><path class="cls-13" d="M255.67,83.56c-10.63-9.7-13.49-24.7-20.24-29.19s-14.62,0-16.87,22.46-.09,92.71,57.27,172.44c0,0,29.24-24.71,43.85-19.09C319.68,230.18,320.9,143.08,255.67,83.56Z" transform="translate(-16.53 -13.25)"/><path class="cls-14" d="M92.16,249.5c-12.39-6-19.66-2.25-39.32-7.86s-32.59-10.66-36-17.39,17.42,32.54,73,60.59,99.44,56.09,168.54,47.68c0,0-40-8-47.86-15.25C210.59,317.27,202.27,302.79,92.16,249.5Z" transform="translate(-16.53 -13.25)"/><path class="cls-15" d="M388.38,300.3s61.85,10.11,139.46-40.43,87.72-71.87,87.72-82-12.38,5.61-27,9-55.11,11.23-72,19.09c0,0-6.75-11.23-28.12,7.86s-97.84,67.38-97.84,67.38S398.5,296.93,388.38,300.3Z" transform="translate(-16.53 -13.25)"/><path class="cls-16" d="M361.72,343.47C388.4,341.8,426.9,319.8,467.19,276s76.31-101.2,51.59-91.66-42.58,32.05-46.36,35.43c-27.65,24.71-51.45,49.13-68,61s-30.81,45-49.77,45S323.8,345.83,361.72,343.47Z" transform="translate(-16.53 -13.25)"/><path class="cls-17" d="M183.7,94.8c-25.46-17-39.36-31.45-42.74-31.45s-3.37,1.13-2.25,21.34,9,59.52,28.12,87.59,91,90.47,91,90.47,11.25-18,21.37-21.34,5.62-2.24,5.62-2.24S261.3,146.45,183.7,94.8Z" transform="translate(-16.53 -13.25)"/><path class="cls-18" d="M335.52,44.26c-5.62-19.09-9-24.71-11.24-29.2s-13.5,0-15.75,6.74-21.37,59.52-21.37,82,8.91,105.06,16.78,132c0,0,28.12-7.86,50.61,3.38,0,0,7.39-101,.09-146.62A124.32,124.32,0,0,0,335.52,44.26Z" transform="translate(-16.53 -13.25)"/><path class="cls-19" d="M335.52,44.26c-5.62-19.09-9-24.71-11.24-29.2s-13.5,0-15.75,6.74-21.37,59.52-21.37,82,8.91,105.06,16.78,132c0,0,28.12-7.86,50.61,3.38,0,0,7.39-101,.09-146.62A124.32,124.32,0,0,0,335.52,44.26Z" transform="translate(-16.53 -13.25)"/><path class="cls-20" d="M298,332.24s-10.61,39.56-61.55,71.35S162.9,447,135.31,456.93s-49.87,14.83-67.56,11.3-3.89-10.6-1.41-13.42S87.21,429,99.94,415.6,190.5,351,209.24,342.13s33.25-19.78,70-15.18C279.28,327,282.82,334.72,298,332.24Z" transform="translate(-16.53 -13.25)"/><path class="cls-21" d="M298,332.24s-10.61,39.56-61.55,71.35S162.9,447,135.31,456.93s-49.87,14.83-67.56,11.3-3.89-10.6-1.41-13.42S87.21,429,99.94,415.6,190.5,351,209.24,342.13s33.25-19.78,70-15.18C279.28,327,282.82,334.72,298,332.24Z" transform="translate(-16.53 -13.25)"/><path class="cls-22" d="M298,332.24s-10.61,39.56-61.55,71.35S162.9,447,135.31,456.93s-49.87,14.83-67.56,11.3-3.89-10.6-1.41-13.42S64.1,476.5,147.87,441c222.18-94.21,94.62-118.62,131.41-114C279.28,327,282.82,334.72,298,332.24Z" transform="translate(-16.53 -13.25)"/><path class="cls-23" d="M503.09,171.16c15.15-24,29.24-48.29,25.87-48.29s-24.74,9-47.24,29.2-74.22,89.84-88.84,120.16c0,0,5.62,0,2.25,14.6C395.13,286.83,443.49,265.49,503.09,171.16Z" transform="translate(-16.53 -13.25)"/><path class="cls-24" d="M406.37,91.43c-2.25-33.69-4.49-62.89-6.74-67.38s-12.37,1.12-19.12,14.6-38.24,66.25-39.36,91,13.4,109.56,13.4,109.56l9.09,6.1s39.36-62.88,42.73-98.82S406.37,91.43,406.37,91.43Z" transform="translate(-16.53 -13.25)"/><path class="cls-25" d="M406.37,91.43c-2.25-33.69-4.49-62.89-6.74-67.38s-12.37,1.12-19.12,14.6-38.24,66.25-39.36,91,13.4,109.56,13.4,109.56l9.09,6.1s39.36-62.88,42.73-98.82S406.37,91.43,406.37,91.43Z" transform="translate(-16.53 -13.25)"/><g class="cls-26"><path class="cls-27" d="M298,332.24s-10.61,39.56-61.55,71.35,31.94-29.8,4.34-19.91S272.24,394.23,137,433.6c-51.65,15-34.08-19.08-31.2-21.49,54.72-45.91,27.08-16.66,39.81-30.09s44.86-31.06,63.6-39.89,33.25-19.78,70-15.18C279.28,327,282.82,334.72,298,332.24Z" transform="translate(-16.53 -13.25)"/></g><path class="cls-28" d="M133.09,125.11C95.63,111.28,90.35,104.9,90.35,104.9s16.87,40.43,21.37,43.8S109.47,147.58,123,170s46.11,69.63,90,102.2S238.8,288,238.8,288l24.66-35.31S215.19,155.44,133.09,125.11Z" transform="translate(-16.53 -13.25)"/><path class="cls-29" d="M133.09,125.11C95.63,111.28,90.35,104.9,90.35,104.9s16.87,40.43,21.37,43.8S109.47,147.58,123,170s46.11,69.63,90,102.2S238.8,288,238.8,288l24.66-35.31S215.19,155.44,133.09,125.11Z" transform="translate(-16.53 -13.25)"/><path class="cls-30" d="M119.59,190.25C78.17,177.76,51,157.68,51,157.68s49.48,73,73.1,95.46,111.34,59.52,144,61.76c0,0-41.61-32.57-43.86-44.92C263.72,324.27,193.4,212.5,119.59,190.25Z" transform="translate(-16.53 -13.25)"/><path class="cls-31" d="M375.17,330.24s22.47-8.41,46.06-104.34c0,0-10.67-9.53-12.36,5.61s3.37,13.47-7.3,24.12-35.39,60.59-52.24,67.88S338.09,349.88,375.17,330.24Z" transform="translate(-16.53 -13.25)"/><path class="cls-32" d="M216.18,265.73c64.82,63.2-82.42-74.18-102.24-82.46C83,170.37,51,157.47,51,157.47S114.5,252.83,167.3,282.56s93.82,16.27,93.82,16.27-19.1-7.3-16.29-19.07S240.9,285.93,216.18,265.73Z" transform="translate(-16.53 -13.25)"/><path class="cls-33" d="M144.27,260.68S84.72,224.22,78,224.78,184.72,340.34,270.11,329.12c0,0-25.28-6.17-31.46-12.9C238.65,316.22,172.36,288.73,144.27,260.68Z" transform="translate(-16.53 -13.25)"/><path class="cls-34" d="M389,322.16s61.85-42.76,67.59-82.87l-53.94,48.13S396,307.63,389,322.16Z" transform="translate(-16.53 -13.25)"/><path class="cls-35" d="M312.25,333.05s24.15,21.31,18.53,28-25.84,18.52-47.18,18-48.88-10.66-55.06-16.83-2.25-18,3.93-15.15,20.22,5.05,28.65,1.12,36.52-16.26,36.52-16.26S299.32,338.66,312.25,333.05Z" transform="translate(-16.53 -13.25)"/><path class="cls-36" d="M313.6,347.56s22.8,6.8,17.18,13.53-25.84,18.52-47.18,18-48.88-10.66-55.06-16.83-2.25-18,3.93-15.15,20.22,5.05,28.65,1.12,24.36-3.64,24.36-3.64S301.55,343.55,313.6,347.56Z" transform="translate(-16.53 -13.25)"/><path class="cls-37" d="M365.57,219.57s-3.19,12.77,1,24.37c2.78,7.66,18.36-18.49,10.39-5.69s-5.54,21.11,0,14.19,10.39-11.77,10.39-11.77l-.34,29.06-7.59,17.68a15.09,15.09,0,0,0-3.16-2.36c-2.63-1.1-16-2.76-17.36-2.76s-4.46,4.4-6.54,7.86S331.93,331,327.77,335.48s-40.63,4-53.88-13.9c-6.92-9.35-46.91-19-39.63-17.94s-3.82-5.49,2.76-3.76-34.29-55-14.54-42.25,16.2-.07,12.39-7.33,2.16-9.28,9.44.41,9,4.5,8-11.07,14.12-57,20.35-47.3-2.68,45.22,1.14,33.46-1.06-43.54,2.75-34.54,13.93,14.63,17.74-.94,28.94-4.06,32.06,8.39-6,22.3,13.22,27.81C350.11,229.56,365.57,219.57,365.57,219.57Z" transform="translate(-16.53 -13.25)"/><path class="cls-38" d="M363.06,233.25s5.86-42.27,4.6-66.84c-1.05-20.57-6.73-42.19-5.76-50.48s-3.41-11.71-6.34,1,9.39,51.45,2.07,81.68-20.39,31-20.39,31S351.34,265.44,363.06,233.25Z" transform="translate(-16.53 -13.25)"/><path class="cls-39" d="M337.72,203.79c-3.17-10.8-5-64.63-2.58-76.82s2.09-30.47,7.47-34.86-4.89-7.32-6.35-5.37-10.75,33.17-12.21,42.92-3,56.18-1.56,68.87,4,35.5,7.42,32.09S350.91,248.66,337.72,203.79Z" transform="translate(-16.53 -13.25)"/><path class="cls-40" d="M315.74,224.09s-17.33-57.23-17.33-76.51c0-34.82-6.41-32.56-7.87-13.48s-2.15,83.21-.2,93.38S330.88,264.38,315.74,224.09Z" transform="translate(-16.53 -13.25)"/><path class="cls-41" d="M265.1,198.67s-24.91-74.62-21.5-89.25-7.81,1-6.35,14.63,14.81,63,14.7,86.1c-.25,50.73-11.76,27.54,1.91,49.48S289,252.32,265.1,198.67Z" transform="translate(-16.53 -13.25)"/><path class="cls-42" d="M278.91,171s-6-16-7.14-27-4.16-23.76-6.24-8.61,3.27,72.76,5.65,92.06,27.66,20.5,20.82-8S278.91,171,278.91,171Z" transform="translate(-16.53 -13.25)"/><path class="cls-43" d="M248.29,200.14c-8.71-20.29-13.68-33-22.31-49.6s-16.65-25.25-12.19-11,20.22,60.88,25.58,74.84,10.41,22.87,11.89,32.08,27.66,53.46,30,54,10.42-21.68-8-53.75S252.75,210.53,248.29,200.14Z" transform="translate(-16.53 -13.25)"/><path class="cls-44" d="M240.08,228.05c-8-10.1-25-35.05-36-58.21s-19-22.58-15.17-12.78,33.11,77.18,40.89,92.71c12.72,25.41,50.61,85.34,50.12,25.2-.14-17.55-7.14-16.63-22-29.7S240.08,228.05,240.08,228.05Z" transform="translate(-16.53 -13.25)"/><path class="cls-45" d="M240.74,265.39s-27.84-6.15-48.78-69.2c-5.63-17-10.11-25.84-17.55-27.92s-1.48,4.75,1.79,9.8,5.53,26.84,10.7,43.07c3.21,10,3.81,16,18.6,36,15.7,21.28,39.11,50.14,43.57,37.66S245.2,269.55,240.74,265.39Z" transform="translate(-16.53 -13.25)"/><path class="cls-46" d="M252,303.85C239.54,300,220.15,290.49,206.36,274c-9.85-11.77-14.34-36.06-26.1-38.92s-17.74,2.63-9.73,6.43,16.91,13.51,19,23.08,24.1,48.47,89.31,58.69c15.24,2.39,9.65-22.9,2.51-22S270.18,309.38,252,303.85Z" transform="translate(-16.53 -13.25)"/><path class="cls-47" d="M375,237.75s3.93-27.28,5.09-50.52S380,134.31,401.52,131c0,0,3.11.87,0,4.71s-12.95,23.65-11.6,52.66-4.68,61.36-14.24,85.78L366,260.11Z" transform="translate(-16.53 -13.25)"/><path class="cls-48" d="M390.14,239.33s16.4-21.14,20.58-39.3,6.26-44.06,25-55.38c0,0,1.49,1.49-2.09,6.55s-10.13,33.35-12.52,42-20.57,58.65-56,95.87l-4.77-18.46S379.71,252.72,390.14,239.33Z" transform="translate(-16.53 -13.25)"/><path class="cls-49" d="M394.78,254s2.09-16.08-6.56-27.69-6.86-23.82-9.54-24.71-9.24,3-6.26,13.4,16.1,24.11,17.29,32.75.89,11,.89,11Z" transform="translate(-16.53 -13.25)"/><path class="cls-50" d="M379.48,287.73s30.44-33.51,24.1-74.38c-3.63-23.42-3-32.42-6.89-29.85s-4.26,12.59-2.48,23.22c6.76,40.32-10.5,63.79-19.13,78.08" transform="translate(-16.53 -13.25)"/><path class="cls-51" d="M375.05,284.57s3.34-19.61-3.22-30.92-10.44-22.33-11.63-27.39-7.75-4.76-7.45-.89,3.58,15.77,6,20.24,9,17.57,9,27.39S369.93,283.59,375.05,284.57Z" transform="translate(-16.53 -13.25)"/><path class="cls-52" d="M346.19,300.39s-5.37-33.34-8.35-43.47-3.88-26.2-7.16-25-6,3.28-2.38,22,6.33,39.46,4.54,72.21Z" transform="translate(-16.53 -13.25)"/><path class="cls-53" d="M315.78,321.23s6,.6,4.77,3.28-1.79,3.27-8.35,4.16-8.95.3-11.63-.29-6.26,1.19-4.17-1.19,4.47-1.2,1.79-12.81-9.55-51.5-10.74-57.46-5.37-49.12-1.79-48.23,6.56,38.71,9.24,46.75S302.66,310.81,315.78,321.23Z" transform="translate(-16.53 -13.25)"/><path class="cls-54" d="M297.85,321.08s-10.13-3.93-15.75-11.79-15.45.73-21.13-38.9c-3.51-24.46,3.13-35.37-4.73-40.27-4.5-2.81-8.44-6.74-6.75,0s9.56,60.07,14.06,69.62,9.55,18,6.18,18S281.54,328.94,297.85,321.08Z" transform="translate(-16.53 -13.25)"/><path class="cls-55" d="M288.94,191.23s-10.59-25.06-8.63-27.61,3.93-2.74,5.1,2.15,7.85,23.7,7.85,23.7Z" transform="translate(-16.53 -13.25)"/><path class="cls-56" d="M291.91,193.54s-.23,1.19-.63-3.66-8.22,15-7.49,1.49c.18-3.44,1.25-4.77,1.84,1s26.45,136.26,26.45,136.26l7.66-9.51Z" transform="translate(-16.53 -13.25)"/><path class="cls-57" d="M287.28,161.29s1-4.3,2.36-4.5,3.72,2.35,3.72,6.07,3.15,13.31,4.12,15.08c4.32,7.89-4.45,10.72-4.45,10.72S286.5,166.58,287.28,161.29Z" transform="translate(-16.53 -13.25)"/><path class="cls-58" d="M277.87,176.88s1.57-17.9-5.69-10.77c-1.82,1.78,2.55,16.25-.2,20.95C272,187.06,279.24,188,277.87,176.88Z" transform="translate(-16.53 -13.25)"/><path class="cls-59" d="M268.45,176.57c-.46.11-3.56-3-3.36,3.24.3,9.53-3.91,17.6-5.46,22.61-2.55,8.23-12,23.88-10.64,56s3.38,44.09,20.84,56.43h0S250.9,266.32,259.42,226c7.65-36.23,13.35-40.18,11.58-44.69S271,176,268.45,176.57Z" transform="translate(-16.53 -13.25)"/><path class="cls-60" d="M293.36,162.86c.45-2.69,4.89-3,5.47.84s-2.71,5.6,9.86,14.67,31.52,23.56,33.45,45.95c0,0-10.44-20.27-25.91-32.82S291.38,174.76,293.36,162.86Z" transform="translate(-16.53 -13.25)"/><path class="cls-61" d="M356.33,245.28S340,220.57,329.9,207.09c-7-9.3-18.16-16.56-22.22-20.81-2.68-2.81-6.18-9.07-8.5-7.34s-.78,3.09,1.54,6.76,11.76,11.51,18.92,18.65c10,10,15.88,15.66,29.94,38.3,0,0,2.47,9.73,7.5,9.93S359.81,256.86,356.33,245.28Z" transform="translate(-16.53 -13.25)"/><path class="cls-62" d="M269.26,188.15c-.37-3.31,5.07-4.46,6-.59s5.07-.3-2.39,24.11-11,68.18-4.77,84,4.47,23.81-1.19,19.35-17.3-39.6-5.66-88.13C266.61,204.33,270.45,198.87,269.26,188.15Z" transform="translate(-16.53 -13.25)"/><path class="cls-63" d="M273.18,180.69c.33-1.84,2.63-7.66,6.89-.3s5.57,10.12,2,30.67-5.89,61.95-4.91,72.07,6.55,28.52,6.55,28.52.66,9.2-6.88,9.2-13.11-45.39-8.52-75.14,10.49-50,8.19-56.12S273.18,180.69,273.18,180.69Z" transform="translate(-16.53 -13.25)"/><path class="cls-64" d="M285.43,185.75c2.26.76,3.63,2.09,3.57,12.81-.59,120.57,11.33,123.25,4.48,125s-13.42-5.36-13.12-48.83S281,184.27,285.43,185.75Z" transform="translate(-16.53 -13.25)"/><path class="cls-65" d="M235.27,251.27" transform="translate(-16.53 -13.25)"/><path class="cls-66" d="M294.25,190.32c-5.06,0-3.52.21,5.72,19.86s22.37,30.67,29.82,104.5c0,0,11.33-7.74,2.39-47.63s-24.16-52.4-28.63-62.82S296.71,190.32,294.25,190.32Z" transform="translate(-16.53 -13.25)"/><path class="cls-67" d="M346.19,292.65s1.19-42.57-23.56-69.37S298.78,192,298.78,192s-3.58-3.87-3,3.58S348.87,244.72,334,309C334,309,346.48,306.05,346.19,292.65Z" transform="translate(-16.53 -13.25)"/><path class="cls-68" d="M354.24,283s-.1-40.4-17.89-59.54C320.85,206.75,306.23,194.54,303,188s-6.56-6.85-5.67-1.79,11.6,21.85,21.74,31.37C329,226.9,346.19,239,346.19,294c0,58.95-.6,1.78-.6,1.78s7.16-5.06,8.05-10.72" transform="translate(-16.53 -13.25)"/><path class="cls-69" d="M315.18,319.74s5.49-5.89-8.65-64.3c-6-24.73-16.1-55.08-16.1-60.14s0-7.74,2.09-8,6.56,20.54,16.7,44.36,22.36,80.08,19.38,83.95-4.47,8.34-12.82,5.66" transform="translate(-16.53 -13.25)"/><path class="cls-70" d="M376.3,284.31s2.09-19.35-4.47-30.66-10.44-22.33-11.63-27.39-7.75-4.76-7.45-.89,3.58,15.77,6,20.24,9,17.57,9,27.39S372.13,281.93,376.3,284.31Z" transform="translate(-16.53 -13.25)"/><path class="cls-71" d="M346.19,300.39s-5.37-33.34-8.35-43.47-3.88-26.2-7.16-25-6,3.28-2.38,22,6.33,39.46,4.54,72.21Z" transform="translate(-16.53 -13.25)"/><path class="cls-72" d="M315.78,321.23s6,.6,4.77,3.28-1.79,3.27-8.35,4.16-8.95.3-11.63-.29-6.26,1.19-4.17-1.19,4.47-1.2,1.79-12.81-12.53-50.31-13.72-56.26-3-8.94.6-8.05,4.47-.29,7.15,7.75S302.66,310.81,315.78,321.23Z" transform="translate(-16.53 -13.25)"/><path class="cls-73" d="M283.83,322s-10.12-3.93-15.74-11.79S252.34,276,249.53,259.71s-4.93-23.9-7.31-28.63c-1.59-3.16-8.44-6.74-6.75,0s9.56,60.07,14.06,69.62,9.56,18,6.19,18S267.52,329.9,283.83,322Z" transform="translate(-16.53 -13.25)"/><path class="cls-74" d="M293.71,331.93s-24.16,15.7-49.44,3.92S160,296,143.71,258.44,188.09,296,228,309.49,296,318.46,293.71,331.93Z" transform="translate(-16.53 -13.25)"/><path class="cls-75" d="M381.35,289.29c9.42,8.56,13.48,28.61,1.12,39.83S346,355.48,333,353.24,306.63,342,306.63,342s18.54-21.88,31.46-34.22S356.63,266.85,381.35,289.29Z" transform="translate(-16.53 -13.25)"/></g></g></svg>