<svg id="Layer_1" data-name="Layer 1" xmlns="http://www.w3.org/2000/svg" xmlns:xlink="http://www.w3.org/1999/xlink" viewBox="0 0 512 512"><defs><style>.cls-1{fill:none;}.cls-2{fill:#e8ebf0;}.cls-3{fill:#d8dbe1;}.cls-4{fill:#474e5d;}.cls-5{fill:#fee79b;}.cls-6{clip-path:url(#clip-path);}.cls-7{fill:#ff6c00;}.cls-8{fill:#ffa200;}.cls-9{fill:#ffca10;}.cls-10{fill:#f93b2a;}.cls-11{fill:#d63123;}</style><clipPath id="clip-path" transform="translate(-132 -77)"><rect class="cls-1" x="203" y="296" width="370" height="246"/></clipPath></defs><title>website</title><path class="cls-2" d="M620,589H156c-7.73,0-24-6.27-24-14V557H644v18C644,582.73,627.73,589,620,589Z" transform="translate(-132 -77)"/><path class="cls-3" d="M644,575c0,7.73-16.27,14-24,14H156c-7.73,0-24-6.27-24-14Z" transform="translate(-132 -77)"/><path class="cls-3" d="M423,569H353a12,12,0,0,1-12-12h94A12,12,0,0,1,423,569Z" transform="translate(-132 -77)"/><path class="cls-4" d="M588,557H188V297a16,16,0,0,1,16-16H572a16,16,0,0,1,16,16Z" transform="translate(-132 -77)"/><rect class="cls-5" x="71" y="219" width="370" height="246"/><g class="cls-6"><path class="cls-7" d="M339.08,509c12.65-6.66,20.92-78.27,20.92-96h56c0,18.47,8.21,88.92,20.8,96Z" transform="translate(-132 -77)"/><circle class="cls-8" cx="196" cy="428" r="16"/><circle class="cls-8" cx="218" cy="446" r="16"/><circle class="cls-8" cx="254" cy="446" r="32"/><circle class="cls-7" cx="292" cy="444" r="16"/><circle class="cls-7" cx="324" cy="428" r="24"/><circle class="cls-7" cx="368" cy="416" r="24"/><circle class="cls-7" cx="408" cy="394" r="32"/><circle class="cls-7" cx="440" cy="370" r="16"/><circle class="cls-7" cx="440" cy="402" r="16"/><circle class="cls-8" cx="284" cy="462" r="24"/><circle class="cls-8" cx="70" cy="370" r="32"/><circle class="cls-8" cx="128" cy="380" r="32"/><circle class="cls-8" cx="164" cy="412" r="32"/><path class="cls-8" d="M356,509c11.3-14.7,16-83,16-96h32c0,18.46,8.76,105.94,35.95,109.82Z" transform="translate(-132 -77)"/><circle class="cls-8" cx="316" cy="446" r="16"/><circle class="cls-8" cx="350" cy="444" r="24"/><circle class="cls-8" cx="394" cy="434" r="32"/><circle class="cls-8" cx="422" cy="443" r="32"/><circle class="cls-9" cx="97" cy="414" r="32"/><circle class="cls-9" cx="92" cy="451" r="32"/><circle class="cls-9" cx="136" cy="422" r="32"/><circle class="cls-9" cx="166" cy="442" r="24"/><circle class="cls-9" cx="190" cy="459" r="24"/><circle class="cls-9" cx="176" cy="476" r="32"/><circle class="cls-9" cx="136" cy="464" r="32"/><circle class="cls-9" cx="226" cy="480" r="24"/><circle class="cls-9" cx="264" cy="476" r="32"/><circle class="cls-9" cx="306" cy="488" r="24"/><circle class="cls-9" cx="306" cy="468" r="16"/><circle class="cls-9" cx="340" cy="468" r="24"/><circle class="cls-9" cx="366" cy="452" r="24"/><circle class="cls-9" cx="392" cy="452" r="16"/><circle class="cls-9" cx="415" cy="465" r="16"/></g><polygon class="cls-4" points="298 336 214 336 222 320 290 320 298 336"/><path class="cls-10" d="M308.23,286.86A128.47,128.47,0,0,0,286.63,427a130,130,0,0,1,38.89-57.47C316.33,344.6,309.5,316.58,308.23,286.86Z" transform="translate(-132 -77)"/><path class="cls-10" d="M467.77,286.86c-1.27,29.72-8.1,57.74-17.29,82.67A130,130,0,0,1,489.37,427,128.47,128.47,0,0,0,467.77,286.86Z" transform="translate(-132 -77)"/><path class="cls-11" d="M488.72,318.26a129.55,129.55,0,0,0-21-31.4c-1.27,29.72-8.1,57.74-17.29,82.67a130.38,130.38,0,0,1,22.73,25.21C481.38,371.43,487.39,345.58,488.72,318.26Z" transform="translate(-132 -77)"/><path class="cls-2" d="M337,397H439c15.75-33.43,29-75,29-120,0-110.46-80-200-80-200s-80,89.54-80,200C308,322,321.29,363.57,337,397Z" transform="translate(-132 -77)"/><path class="cls-3" d="M388,77s60,89.54,60,200c0,45-10,86.57-21.78,120H439c15.75-33.43,29-75,29-120C468,166.54,388,77,388,77Z" transform="translate(-132 -77)"/><path class="cls-10" d="M396,295c0,4.42-8,132-8,132s-8-127.58-8-132a8,8,0,0,1,16,0Z" transform="translate(-132 -77)"/><path class="cls-10" d="M388,144A128.7,128.7,0,0,0,429,137.32C408.64,100.11,388,77,388,77s-20.64,23.11-40.95,60.32A128.7,128.7,0,0,0,388,144Z" transform="translate(-132 -77)"/><path class="cls-11" d="M429,137.32h0C408.64,100.11,388,77,388,77s16.23,24.22,31.8,63Q424.45,138.83,429,137.32Z" transform="translate(-132 -77)"/><circle class="cls-4" cx="256" cy="138" r="40"/><circle class="cls-9" cx="256" cy="138" r="32"/><path class="cls-8" d="M362,221a32,32,0,0,1,51.4-25.4,32,32,0,1,0-44.8,44.8A31.79,31.79,0,0,1,362,221Z" transform="translate(-132 -77)"/></svg>